<svg version="1" xmlns="http://www.w3.org/2000/svg" width="933.333" height="933.333" viewBox="0 0 700.000000 700.000000"><path d="M198.8 67.8C137.4 100.1 86.9 126.7 86.6 127c-.7.7-71.8 409-71.4 410.2.3.9 377.2 148 379.3 148.1.7 0 227-122.2 229.3-123.9.5-.3 71.2-404.2 71.2-406.4 0-1.2-46.3-19-190.7-73.2C399.3 42.4 312.8 9.9 312 9.7c-.8-.3-51.8 25.9-113.2 58.1zM483.9 110c93 34.9 169.1 63.7 169.1 64 0 .3-18.1 9.6-40.2 20.7-22.2 11.2-65.9 33.1-97.1 48.9l-56.8 28.6L288 210.5l-170.9-61.8 97.7-51.3c53.7-28.2 98.2-51.2 98.9-51.1.6.1 77.2 28.8 170.2 63.7zm-197 107.3c92 33.3 167.5 60.8 167.8 61.1.5.5-62.8 367.8-63.6 368.8-.5.6-336.7-129.5-338-130.8-.2-.2 13.7-81.4 31-180.5 30.1-172.7 31.4-180 33.4-179.6 1.1.2 77.3 27.7 169.4 61zm369-33.1c-.5 2.4-14.6 83-31.4 179.3-27.6 157.7-30.8 175.1-32.7 176.5-2.8 1.9-192.2 104.8-192.6 104.5-.4-.4 63.1-366 63.7-366.3.3-.2 44-22.3 97.1-49.2 53.1-26.9 96.6-48.9 96.6-49 .1 0-.2 1.9-.7 4.2z"/><path d="M322 73.1c-7.7.7-10.5 1.8-14.8 5.4-6.6 5.5-2.6 13 10.3 19.3 14.5 7.2 27.9 9.8 45.9 8.9 13.4-.6 19.4-2.3 22.6-6.5 4.1-5.1 1.7-9.9-8.2-16.2-12.3-8-36.6-12.7-55.8-10.9zM214 127.3c-11.2 2.5-16.5 7.9-13.6 13.6 5.5 10.5 31 20.1 53.6 20.1 15.3 0 26.5-3.3 28.9-8.7 1.7-3.6 1.4-4.9-2-8.8-5.5-6.2-17.1-11.8-31.1-15-9.7-2.2-28.7-2.8-35.8-1.2zM358 132.6c-13.4 2-19 5.2-19 10.7.1 5.8 7 11.7 19.1 16.6 12.6 5 21 6.6 35.4 6.6 14.6-.1 22.3-1.8 26.8-5.9 4.1-3.8 3.6-7.1-2.1-12.6-7.3-7-18.2-11.6-34.7-14.6-7.3-1.3-19.4-1.7-25.5-.8zM490.3 139.4c-6.9 1.7-12.3 5.9-12.3 9.3 0 8.3 13.9 16.9 35.3 22 8.7 2.1 27.6 2.3 36 .4 7.2-1.6 12.7-6 12.7-10.2 0-6.8-13.7-15.6-31.2-20-10.5-2.6-32.8-3.5-40.5-1.5zM391 192.1c-19.9 2.9-22.7 13.3-6.2 23.2 12.6 7.6 28.7 11.2 47.8 10.5 14.2-.5 19.9-2.1 23.4-6.6 2.9-3.6 2.5-6.7-1.4-11-6.9-7.6-21.3-13.2-40-15.7-12.7-1.6-15.2-1.7-23.6-.4zM209.9 279.5c-24 4.8-45 18.9-58.7 39.4-12.7 18.9-19.4 44.7-17.7 67.4 2.9 37.9 18.7 71.6 45.6 97.2 11.6 11.1 20.3 17.3 32.7 23.7 22.1 11.2 46 15.2 67.7 11.3 10.4-1.9 9.7-2 12.1 2.3 1.1 2 4.6 8.3 7.8 13.9l5.6 10.2 17.3-9.6c9.4-5.3 17.4-9.8 17.6-9.9.2-.2-3.1-6.4-7.3-13.8-4.2-7.5-7.6-13.8-7.6-14.2 0-.3 3.1-3.9 6.8-8 29.4-31.9 34.3-83.9 12.2-131-19.3-41.4-57-71.8-97.4-78.9-10.6-1.8-27.6-1.8-36.7 0zm36.9 41.5c19.9 5.5 39.4 20.5 52.5 40.2 6.7 10.1 10.7 18.5 14.4 30.5 2.4 8 2.7 10.4 2.7 25.3.1 14.4-.2 17.4-2.1 23.5-2.4 7.5-9.1 19.7-10.4 18.9-.5-.2-4-6.3-8-13.4-3.9-7.2-7.2-13-7.4-13-.6 0-33 18.2-33.9 19-.5.5 2.2 6.4 6.2 13.7 4.9 8.9 6.7 13 5.9 13.6-1.6 1-12.6-.1-20.2-2-15.1-3.8-29.5-12.5-42.1-25.5-13.2-13.6-21.3-27.4-27-46.3-2.5-8.1-2.8-10.5-2.8-25-.1-15 .1-16.5 2.7-24 7.4-21 21.6-34 41-37.5 7.3-1.3 19.9-.4 28.5 2zM506.7 309.5c-13.6 7.1-26.4 30.4-29.6 54.1-1.1 8-.4 16.2 1.9 20.3 1.4 2.8 5.9 6.1 8.2 6.1 7.3 0 17.8-10.9 25.3-26.4 7.2-14.7 8.9-21.5 8.9-35.1.1-12.4-1.2-16.3-6.4-19-3.6-1.9-4.8-1.9-8.3 0zM542.5 376.9c-10.8 5-23 25.4-27.5 45.9-4.5 20.1-1 33.2 8.8 33.2 8.5 0 18-9.9 26.2-27.3 6-12.6 8.2-21.6 8.3-33.2.2-10.3-1.3-15.6-5-18.5-3.2-2.5-5.6-2.5-10.8-.1zM576.8 445c-8.9 5.9-18 20.4-23.3 37-3.9 12.1-4.7 28.8-1.6 34.8 3.7 7.2 8.9 8.1 16.6 3 13.5-9 26.5-38 26.5-59.2-.1-16.8-7.2-22.9-18.2-15.6z"/></svg>