<?xml version="1.0" encoding="UTF-8" standalone="no"?>
<svg
   xmlns:dc="http://purl.org/dc/elements/1.1/"
   xmlns:cc="http://creativecommons.org/ns#"
   xmlns:rdf="http://www.w3.org/1999/02/22-rdf-syntax-ns#"
   xmlns:svg="http://www.w3.org/2000/svg"
   xmlns="http://www.w3.org/2000/svg"
   xmlns:sodipodi="http://sodipodi.sourceforge.net/DTD/sodipodi-0.dtd"
   xmlns:inkscape="http://www.inkscape.org/namespaces/inkscape"
   version="1.1"
   id="Layer_1"
   x="0px"
   y="0px"
   width="46px"
   height="46px"
   viewBox="0 0 429.709 429.709"
   style="enable-background:new 0 0 429.709 429.709;"
   xml:space="preserve"
   sodipodi:docname="github.svg"
   inkscape:version="1.0 (4035a4fb49, 2020-05-01)"><metadata
   id="metadata47"><rdf:RDF><cc:Work
       rdf:about=""><dc:format>image/svg+xml</dc:format><dc:type
         rdf:resource="http://purl.org/dc/dcmitype/StillImage" /><dc:title></dc:title></cc:Work></rdf:RDF></metadata><defs
   id="defs45" /><sodipodi:namedview
   inkscape:document-rotation="0"
   pagecolor="#ffffff"
   bordercolor="#666666"
   borderopacity="1"
   objecttolerance="10"
   gridtolerance="10"
   guidetolerance="10"
   inkscape:pageopacity="0"
   inkscape:pageshadow="2"
   inkscape:window-width="2156"
   inkscape:window-height="1582"
   id="namedview43"
   showgrid="false"
   inkscape:pagecheckerboard="true"
   inkscape:zoom="21.913043"
   inkscape:cx="16.137422"
   inkscape:cy="23"
   inkscape:window-x="0"
   inkscape:window-y="34"
   inkscape:window-maximized="0"
   inkscape:current-layer="Layer_1" />

















<g
   id="g12"
   transform="matrix(0.92390245,0,0,0.92390245,32.699802,16.349901)">
</g><g
   id="g14"
   transform="matrix(0.92390245,0,0,0.92390245,32.699802,16.349901)">
</g><g
   id="g16"
   transform="matrix(0.92390245,0,0,0.92390245,32.699802,16.349901)">
</g><g
   id="g18"
   transform="matrix(0.92390245,0,0,0.92390245,32.699802,16.349901)">
</g><g
   id="g20"
   transform="matrix(0.92390245,0,0,0.92390245,32.699802,16.349901)">
</g><g
   id="g22"
   transform="matrix(0.92390245,0,0,0.92390245,32.699802,16.349901)">
</g><g
   id="g24"
   transform="matrix(0.92390245,0,0,0.92390245,32.699802,16.349901)">
</g><g
   id="g26"
   transform="matrix(0.92390245,0,0,0.92390245,32.699802,16.349901)">
</g><g
   id="g28"
   transform="matrix(0.92390245,0,0,0.92390245,32.699802,16.349901)">
</g><g
   id="g30"
   transform="matrix(0.92390245,0,0,0.92390245,32.699802,16.349901)">
</g><g
   id="g32"
   transform="matrix(0.92390245,0,0,0.92390245,32.699802,16.349901)">
</g><g
   id="g34"
   transform="matrix(0.92390245,0,0,0.92390245,32.699802,16.349901)">
</g><g
   id="g36"
   transform="matrix(0.92390245,0,0,0.92390245,32.699802,16.349901)">
</g><g
   id="g38"
   transform="matrix(0.92390245,0,0,0.92390245,32.699802,16.349901)">
</g><g
   id="g40"
   transform="matrix(0.92390245,0,0,0.92390245,32.699802,16.349901)">
</g>
<path
   style="stroke-width:13.4521;fill:#ffffff;fill-opacity:1"
   fill-rule="evenodd"
   clip-rule="evenodd"
   fill="#181616"
   d="m 215.51967,18.34923 c -111.65248,0 -201.781576,90.1291 -201.781576,201.78157 0,88.78389 57.844048,164.11569 138.556676,191.0199 10.76169,1.34521 13.45211,-4.03564 13.45211,-9.41648 V 366.75875 C 109.24804,378.86564 97.141142,339.85454 97.141142,339.85454 87.724668,316.98596 74.272563,310.2599 74.272563,310.2599 c -18.832941,-12.10689 1.34521,-12.10689 1.34521,-12.10689 20.178159,1.34521 30.939837,20.17816 30.939837,20.17816 17.48774,30.93984 47.08238,21.52337 59.18927,16.14252 1.34521,-13.4521 6.72605,-21.52336 13.45211,-26.90421 -44.39195,-5.38084 -91.474322,-22.86858 -91.474322,-99.54558 0,-21.52337 8.071264,-40.35631 20.178162,-53.80842 -2.69043,-5.38084 -9.416477,-25.55899 1.34521,-53.80841 0,0 17.48773,-5.380843 55.15363,20.17816 16.14253,-4.03564 33.63026,-6.72606 51.118,-6.72606 17.48774,0 34.97547,2.69042 51.118,6.72606 39.01111,-25.559003 55.15363,-20.17816 55.15363,-20.17816 10.76169,28.24942 4.03564,48.42757 1.34521,53.80841 13.45211,13.45211 20.17816,32.28505 20.17816,53.80842 0,78.02222 -47.08237,94.16474 -91.47431,99.54558 6.72605,6.72606 13.4521,18.83295 13.4521,37.6659 v 55.15363 c 0,5.38084 4.03563,12.1069 13.45211,9.41648 C 359.4572,382.90127 415.95604,307.56948 415.95604,218.78559 417.30125,108.47833 327.17215,18.34923 215.51967,18.34923 Z"
   id="path2" /></svg>
