<?xml version="1.0" encoding="UTF-8" standalone="no"?>
<svg
   xmlns:sketch="http://www.bohemiancoding.com/sketch/ns"
   xmlns:dc="http://purl.org/dc/elements/1.1/"
   xmlns:cc="http://creativecommons.org/ns#"
   xmlns:rdf="http://www.w3.org/1999/02/22-rdf-syntax-ns#"
   xmlns:svg="http://www.w3.org/2000/svg"
   xmlns="http://www.w3.org/2000/svg"
   xmlns:sodipodi="http://sodipodi.sourceforge.net/DTD/sodipodi-0.dtd"
   xmlns:inkscape="http://www.inkscape.org/namespaces/inkscape"
   inkscape:version="1.0 (4035a4fb49, 2020-05-01)"
   sodipodi:docname="google.svg"
   xml:space="preserve"
   style="enable-background:new 0 0 429.709 429.709;"
   viewBox="0 0 429.709 429.709"
   height="46px"
   width="46px"
   y="0px"
   x="0px"
   id="Layer_1"
   version="1.1"><sodipodi:namedview
   inkscape:current-layer="Layer_1"
   inkscape:window-maximized="0"
   inkscape:window-y="34"
   inkscape:window-x="0"
   inkscape:cy="22.259239"
   inkscape:cx="20.894765"
   inkscape:zoom="21.913043"
   inkscape:pagecheckerboard="true"
   showgrid="false"
   id="namedview21"
   inkscape:window-height="1582"
   inkscape:window-width="2156"
   inkscape:pageshadow="2"
   inkscape:pageopacity="0"
   guidetolerance="10"
   gridtolerance="10"
   objecttolerance="10"
   borderopacity="1"
   bordercolor="#666666"
   pagecolor="#ffffff" /><metadata
   id="metadata47"><rdf:RDF><cc:Work
       rdf:about=""><dc:format>image/svg+xml</dc:format><dc:type
         rdf:resource="http://purl.org/dc/dcmitype/StillImage" /><dc:title></dc:title></cc:Work></rdf:RDF></metadata><defs
   id="defs45" />


















<rect
   y="30.118782"
   x="34.044334"
   height="369.47144"
   width="361.62033"
   id="rect909"
   style="fill:#ffffff;stroke:#ffffff;stroke-width:58.7133;stroke-linejoin:round" /><g
   transform="matrix(0.942085,0,0,0.942085,12.940518,4.1348746)"
   id="g862"><path
     d="m 414.58403,228.31786 c 0,-14.48986 -1.30032,-28.42243 -3.71535,-41.79768 H 218.41359 v 79.04407 h 109.97434 c -4.73708,25.543 -19.13405,47.18491 -40.77597,61.67479 v 51.27182 h 66.04034 c 38.63964,-35.57448 60.93173,-87.96088 60.93173,-150.193 z"
     id="Shape"
     fill="#4285f4"
     sketch:type="MSShapeGroup"
     style="fill-rule:evenodd;stroke:none;stroke-width:22.7049" /><path
     d="m 218.41359,428.01788 c 55.17293,0 101.42904,-18.2981 135.23871,-49.50702 l -66.04034,-51.27182 c -18.29809,12.26065 -41.70477,19.50558 -69.19837,19.50558 -53.22236,0 -98.27098,-35.94599 -114.33985,-84.24556 H 35.804205 v 52.94373 C 69.428108,382.22619 138.5336,428.01788 218.41359,428.01788 Z"
     id="path42"
     fill="#34a853"
     sketch:type="MSShapeGroup"
     style="fill-rule:evenodd;stroke:none;stroke-width:22.7049" /><path
     d="m 104.07374,262.49906 c -4.086886,-12.26065 -6.408977,-25.35724 -6.408977,-38.82538 0,-13.46814 2.322091,-26.56475 6.408977,-38.8254 V 131.90456 H 35.804205 c -13.839678,27.58648 -21.734808,58.7954 -21.734808,91.76912 0,32.97371 7.89513,64.18265 21.734808,91.76911 z"
     id="path44"
     fill="#fbbc05"
     sketch:type="MSShapeGroup"
     style="fill-rule:evenodd;stroke:none;stroke-width:22.7049" /><path
     d="m 218.41359,100.60274 c 30.00148,0 56.93772,10.3101 78.11523,30.55875 L 355.13843,72.551856 C 319.74974,39.578123 273.49365,19.329494 218.41359,19.329494 c -79.87999,0 -148.985482,45.791659 -182.609385,112.575066 l 68.269535,52.94372 c 16.06887,-48.29954 61.11749,-84.24554 114.33985,-84.24554 z"
     id="path46"
     fill="#ea4335"
     sketch:type="MSShapeGroup"
     style="fill-rule:evenodd;stroke:none;stroke-width:22.7049" /></g></svg>
