<?xml version="1.0" encoding="UTF-8" standalone="no"?>
<svg
   xmlns:dc="http://purl.org/dc/elements/1.1/"
   xmlns:cc="http://creativecommons.org/ns#"
   xmlns:rdf="http://www.w3.org/1999/02/22-rdf-syntax-ns#"
   xmlns:svg="http://www.w3.org/2000/svg"
   xmlns="http://www.w3.org/2000/svg"
   xmlns:sodipodi="http://sodipodi.sourceforge.net/DTD/sodipodi-0.dtd"
   xmlns:inkscape="http://www.inkscape.org/namespaces/inkscape"
   inkscape:version="1.0 (4035a4fb49, 2020-05-01)"
   sodipodi:docname="reddit.svg"
   xml:space="preserve"
   style="enable-background:new 0 0 429.709 429.709;"
   viewBox="0 0 429.709 429.709"
   height="46px"
   width="46px"
   y="0px"
   x="0px"
   id="Layer_1"
   version="1.1"><metadata
   id="metadata47"><rdf:RDF><cc:Work
       rdf:about=""><dc:format>image/svg+xml</dc:format><dc:type
         rdf:resource="http://purl.org/dc/dcmitype/StillImage" /><dc:title></dc:title></cc:Work></rdf:RDF></metadata><defs
   id="defs45" /><sodipodi:namedview
   inkscape:current-layer="Layer_1"
   inkscape:window-maximized="0"
   inkscape:window-y="34"
   inkscape:window-x="0"
   inkscape:cy="23"
   inkscape:cx="15.214942"
   inkscape:zoom="21.913043"
   inkscape:pagecheckerboard="true"
   showgrid="false"
   id="namedview43"
   inkscape:window-height="1582"
   inkscape:window-width="2069"
   inkscape:pageshadow="2"
   inkscape:pageopacity="0"
   guidetolerance="10"
   gridtolerance="10"
   objecttolerance="10"
   borderopacity="1"
   bordercolor="#666666"
   pagecolor="#ffffff" />

















<g
   style="fill:#000000;fill-opacity:1"
   id="g926"><ellipse
     style="fill:#000000;fill-opacity:1;stroke-width:92.4336;stroke-linejoin:round"
     id="path914"
     cx="215.49069"
     cy="260.59375"
     rx="163.50891"
     ry="118.44834" /><ellipse
     ry="41.937084"
     rx="41.203583"
     cy="196.59933"
     cx="65.062347"
     id="ellipse916"
     style="fill:#000000;fill-opacity:1;stroke-width:27.6096;stroke-linejoin:round" /><ellipse
     style="fill:#000000;fill-opacity:1;stroke-width:27.6096;stroke-linejoin:round"
     id="ellipse918"
     cx="362.83511"
     cy="199.12941"
     rx="41.203583"
     ry="41.937084" /><ellipse
     ry="33.940968"
     rx="34.3386"
     cy="79.654541"
     cx="337.13541"
     id="ellipse920"
     style="fill:#000000;fill-opacity:1;stroke-width:22.675;stroke-linejoin:round" /></g><path
   id="path2"
   d="m 413.35911,198.00575 c 0,-27.53506 -22.32148,-49.85562 -49.85655,-49.85562 -13.79017,0 -26.24807,5.62194 -35.2709,14.67249 -27.8806,-17.98191 -63.49981,-29.44107 -102.61969,-31.22883 0.024,-16.60991 7.46328,-32.093597 20.42194,-42.489347 12.98175,-10.4133 29.74781,-14.313093 45.98724,-10.706177 l 2.2303,0.495211 c -0.0222,0.558961 -0.0841,1.106835 -0.0841,1.67134 0,22.984843 18.63326,41.618103 41.61811,41.618103 22.98484,0 41.61811,-18.63326 41.61811,-41.618103 0,-22.985769 -18.63327,-41.61811 -41.61811,-41.61811 -14.77967,0 -27.72631,7.725672 -35.11014,19.336354 l -3.98849,-0.886022 c -22.64485,-5.031573 -46.01681,0.408365 -64.11421,14.926568 -18.07523,14.500646 -28.4488,36.100563 -28.47283,59.270183 -39.11063,1.78683 -74.72338,13.24045 -102.60121,31.21405 -9.023756,-9.0524 -21.500131,-14.65864 -35.29307,-14.65864 -27.534141,9.3e-4 -49.855624,22.32149 -49.855624,49.85655 0,19.18483 10.855853,35.80584 26.74328,44.14036 -1.206617,6.17167 -1.841338,12.48193 -1.841338,18.9049 0,71.63754 77.724212,129.71128 173.602192,129.71128 95.87798,0 173.60219,-58.07374 173.60219,-129.71128 0,-6.41928 -0.63472,-12.72676 -1.83949,-18.89566 15.88835,-8.33637 26.74236,-24.96292 26.74236,-44.1496 z M 335.78549,60.459776 c 11.08683,0 20.10596,9.019135 20.10596,20.105965 0,11.085902 -9.01913,20.105039 -20.10596,20.105039 -11.08683,0 -20.10597,-9.019137 -20.10597,-20.105039 0,-11.08683 9.02006,-20.105965 20.10597,-20.105965 z M 37.86206,198.00575 c 0,-15.62873 12.714746,-28.34348 28.34348,-28.34348 6.693673,0 12.837624,2.34486 17.685344,6.24373 C 68.727793,188.91455 56.988689,204.20606 49.700022,220.99614 42.541626,215.85462 37.86206,207.47575 37.86206,198.00575 Z m 286.87171,137.53119 c -29.09554,21.73943 -68.11841,33.71228 -109.8788,33.71228 -41.76039,0 -80.78326,-11.97285 -109.87879,-33.71228 -27.220012,-20.33786 -42.211253,-46.79103 -42.211253,-74.48593 0,-27.69583 14.991241,-54.149 42.211253,-74.48687 29.09553,-21.73942 68.1184,-33.71227 109.87879,-33.71227 41.76039,0 80.78326,11.97285 109.8788,33.71227 27.22001,20.33787 42.21125,46.79104 42.21125,74.48687 -9.2e-4,27.6949 -14.99124,54.14807 -42.21125,74.48593 z M 380.00254,220.9832 c -7.29052,-16.7873 -19.0287,-32.07419 -34.18901,-45.08089 4.84771,-3.89887 10.99536,-6.24004 17.68996,-6.24004 15.62873,0 28.34348,12.71475 28.34348,28.34348 -9.3e-4,9.46908 -4.68604,17.83778 -11.84443,22.97745 z"
   style="fill:#ffffff;stroke-width:0.923902;fill-opacity:1" /><g
   transform="matrix(0.92390245,0,0,0.92390245,16.354053,16.349901)"
   id="g8">
	<circle
   id="circle4"
   r="24.57"
   cy="232.07001"
   cx="146.22"
   style="fill:#d80000" />
	<circle
   id="circle6"
   r="24.57"
   cy="232.07001"
   cx="283.48001"
   style="fill:#d80000" />
</g><path
   id="path10"
   d="m 276.10615,285.91969 c -16.00199,14.57918 -36.74637,22.60789 -58.41281,22.60789 -24.3282,0 -46.86865,-9.80445 -63.4684,-27.60713 -4.05039,-4.34604 -10.85678,-4.58255 -15.20189,-0.53124 -4.34512,4.05039 -4.58256,10.8577 -0.53125,15.20189 20.41363,21.89187 49.28188,34.4477 79.20246,34.4477 27.03893,0 52.92853,-10.02157 72.90053,-28.21875 4.39038,-4.0005 4.7082,-10.80412 0.70678,-15.1945 -3.99957,-4.38761 -10.79857,-4.70913 -15.19542,-0.70586 z"
   style="fill:#ffffff;stroke-width:0.923902;fill-opacity:1" /><g
   transform="matrix(0.92390245,0,0,0.92390245,32.699802,16.349901)"
   id="g12">
</g><g
   transform="matrix(0.92390245,0,0,0.92390245,32.699802,16.349901)"
   id="g14">
</g><g
   transform="matrix(0.92390245,0,0,0.92390245,32.699802,16.349901)"
   id="g16">
</g><g
   transform="matrix(0.92390245,0,0,0.92390245,32.699802,16.349901)"
   id="g18">
</g><g
   transform="matrix(0.92390245,0,0,0.92390245,32.699802,16.349901)"
   id="g20">
</g><g
   transform="matrix(0.92390245,0,0,0.92390245,32.699802,16.349901)"
   id="g22">
</g><g
   transform="matrix(0.92390245,0,0,0.92390245,32.699802,16.349901)"
   id="g24">
</g><g
   transform="matrix(0.92390245,0,0,0.92390245,32.699802,16.349901)"
   id="g26">
</g><g
   transform="matrix(0.92390245,0,0,0.92390245,32.699802,16.349901)"
   id="g28">
</g><g
   transform="matrix(0.92390245,0,0,0.92390245,32.699802,16.349901)"
   id="g30">
</g><g
   transform="matrix(0.92390245,0,0,0.92390245,32.699802,16.349901)"
   id="g32">
</g><g
   transform="matrix(0.92390245,0,0,0.92390245,32.699802,16.349901)"
   id="g34">
</g><g
   transform="matrix(0.92390245,0,0,0.92390245,32.699802,16.349901)"
   id="g36">
</g><g
   transform="matrix(0.92390245,0,0,0.92390245,32.699802,16.349901)"
   id="g38">
</g><g
   transform="matrix(0.92390245,0,0,0.92390245,32.699802,16.349901)"
   id="g40">
</g>
</svg>
