<?xml version="1.0" encoding="UTF-8" standalone="no"?>
<svg
   xmlns:dc="http://purl.org/dc/elements/1.1/"
   xmlns:cc="http://creativecommons.org/ns#"
   xmlns:rdf="http://www.w3.org/1999/02/22-rdf-syntax-ns#"
   xmlns:svg="http://www.w3.org/2000/svg"
   xmlns="http://www.w3.org/2000/svg"
   xmlns:sodipodi="http://sodipodi.sourceforge.net/DTD/sodipodi-0.dtd"
   xmlns:inkscape="http://www.inkscape.org/namespaces/inkscape"
   version="1.0"
   width="100"
   height="100"
   viewBox="0 0 80 80"
   preserveAspectRatio="xMidYMid meet"
   id="svg2"
   inkscape:version="0.91 r13725"
   sodipodi:docname="die.svg">
  <defs
     id="defs206" />
  <sodipodi:namedview
     pagecolor="#ffffff"
     bordercolor="#666666"
     borderopacity="1"
     objecttolerance="10"
     gridtolerance="10"
     guidetolerance="10"
     inkscape:pageopacity="0"
     inkscape:pageshadow="2"
     inkscape:window-width="1280"
     inkscape:window-height="751"
     id="namedview204"
     showgrid="false"
     inkscape:zoom="6.8343891"
     inkscape:cx="44.299851"
     inkscape:cy="51.621046"
     inkscape:window-x="0"
     inkscape:window-y="23"
     inkscape:window-maximized="1"
     inkscape:current-layer="svg2"
     units="px" />
  <metadata
     id="metadata4">
Created by potrace 1.11, written by Peter Selinger 2001-2013
<rdf:RDF>
  <cc:Work
     rdf:about="">
    <dc:format>image/svg+xml</dc:format>
    <dc:type
       rdf:resource="http://purl.org/dc/dcmitype/StillImage" />
    <dc:title></dc:title>
  </cc:Work>
</rdf:RDF>
</metadata>
  <path
     style="fill:#ffffff;fill-rule:evenodd;stroke:none;stroke-width:0.80000001px;stroke-linecap:butt;stroke-linejoin:miter;stroke-opacity:1;fill-opacity:1"
     d="M 48.34375,28.963983 71.871822,12.225106 26.220339,2.6265888 2.3411017,20.536017 Z"
     id="path4465"
     inkscape:connector-curvature="0" />
  <path
     style="fill:#d7d7d7;fill-rule:evenodd;stroke:none;stroke-width:0.80000001px;stroke-linecap:butt;stroke-linejoin:miter;stroke-opacity:1;fill-opacity:1"
     d="M 48.226695,29.198093 47.64142,77.190678 71.403602,59.28125 71.052437,12.693326 Z"
     id="path4463"
     inkscape:connector-curvature="0" />
  <path
     style="fill:#ebebeb;fill-rule:evenodd;stroke:none;stroke-width:0.80000001px;stroke-linecap:butt;stroke-linejoin:miter;stroke-opacity:1;fill-opacity:1"
     d="M 48.226695,28.729873 47.992585,76.956568 2.3411017,67.358051 3.2775424,20.301906 Z"
     id="path4461"
     inkscape:connector-curvature="0" />
  <path
     style="fill:none;fill-rule:evenodd;stroke:#000000;stroke-width:4;stroke-linecap:butt;stroke-linejoin:miter;stroke-opacity:1;stroke-miterlimit:4;stroke-dasharray:none"
     d="M 3.2775424,19.599576 2.5752118,67.123941 47.992585,76.956568 71.871822,59.164195 72.105932,11.873941 26.220339,2.5095338 Z"
     id="path4457"
     inkscape:connector-curvature="0" />
  <path
     style="fill:#000000;stroke:none"
     inkscape:connector-curvature="0"
     id="path10"
     d="m 27.616415,7.9227386 c -0.940638,0.4241724 -1.449493,0.9929635 -1.330154,1.4904925 0.229669,0.9575129 2.418253,1.7628319 4.965146,1.8269989 1.079133,0.02905 1.320573,9.64e-4 2.646441,-0.307175 0.96915,-0.222534 1.589098,-0.410946 1.841067,-0.56073 0.452117,-0.267286 0.884381,-0.9070518 0.812326,-1.2074476 C 36.416143,8.6016367 35.317569,7.9121064 34.095787,7.619446 33.327199,7.4364859 31.614639,7.2913231 30.731499,7.3343898 29.740593,7.3834481 28.164278,7.6821261 27.616415,7.9227386 Z" />
  <path
     style="fill:#000000;stroke:none"
     inkscape:connector-curvature="0"
     id="path12"
     d="m 15.876581,16.466815 c -3.161041,1.721176 2.100313,3.913934 6.772588,2.823015 1.335258,-0.31035 1.967984,-0.611029 2.324009,-1.113377 1.213035,-1.730442 -3.795717,-3.159809 -7.684719,-2.197205 -0.516305,0.123847 -1.148273,0.344919 -1.411878,0.487567 z" />
  <path
     style="fill:#000000;stroke:none"
     inkscape:connector-curvature="0"
     id="path14"
     d="m 32.481806,14.548768 c -0.515576,0.292435 -0.737512,0.484653 -0.845689,0.778642 -0.537494,1.359927 2.635555,2.544617 6.147857,2.28787 0.925573,-0.07309 2.608543,-0.50656 3.140643,-0.812885 1.186614,-0.681722 1.196099,-1.428557 0.02055,-2.149261 -1.059152,-0.649348 -3.029639,-1.000683 -5.100439,-0.901075 -0.941719,0.04719 -2.800415,0.493018 -3.362928,0.796709 z" />
  <path
     style="fill:#000000;stroke:none"
     inkscape:connector-curvature="0"
     id="path26"
     d="m 49.585705,12.391981 c -0.949647,0.386621 -1.503184,0.976058 -1.379344,1.492364 0.281459,1.17342 3.356926,2.034054 6.403251,1.779874 0.845978,-0.07386 2.56913,-0.546742 3.101229,-0.853066 0.407424,-0.24664 0.828049,-0.893541 0.758245,-1.184548 -0.02701,-0.112646 -0.197832,-0.369502 -0.38329,-0.563276 -1.282099,-1.330503 -5.9662,-1.696085 -8.500091,-0.671348 z" />
  <path
     style="fill:#000000;stroke:none"
     inkscape:connector-curvature="0"
     id="path50"
     d="m 37.991944,20.841455 c -0.510311,0.231607 -0.949298,0.595017 -1.059728,0.879617 -0.05033,0.121273 -0.05749,0.381108 -0.01249,0.568854 0.162121,0.675892 1.550942,1.375221 3.269492,1.628148 2.782272,0.424659 6.033663,-0.216239 6.741967,-1.319316 0.572755,-0.881934 -0.432673,-1.762573 -2.524053,-2.20404 -2.124048,-0.453486 -4.879364,-0.269107 -6.415182,0.446737 z" />
  <path
     style="fill:#000000;stroke:none"
     inkscape:connector-curvature="0"
     id="path130"
     d="m 54.467352,32.495593 c -1.362023,1.150678 -2.360073,4.149904 -2.28308,6.871413 0.06202,2.328001 1.184192,3.48839 2.404263,2.490892 0.88961,-0.719686 1.658814,-2.313884 2.080356,-4.281359 0.272402,-1.306268 0.315728,-2.408679 0.127046,-3.485215 -0.172958,-1.010823 -0.44211,-1.512128 -0.954229,-1.826099 -0.465569,-0.285426 -0.847813,-0.223522 -1.374305,0.230368 z" />
  <path
     style="fill:#000000;stroke:none"
     inkscape:connector-curvature="0"
     id="path138"
     d="m 22.199167,43.57112 c -1.946294,1.280891 -2.487725,4.031607 -1.282758,6.571907 0.38101,0.80208 0.79472,1.367987 1.493029,2.044324 0.761009,0.730788 1.303158,1.087192 2.173486,1.404589 3.198962,1.168546 6.03861,-0.733654 6.101001,-4.074317 0.01776,-0.877877 -0.323001,-2.215767 -0.787736,-3.077186 -1.01205,-1.901575 -2.965506,-3.29938 -4.888328,-3.493379 -0.865476,-0.09023 -2.137274,0.194971 -2.808694,0.624062 z" />
  <path
     style="fill:#000000;stroke:none"
     inkscape:connector-curvature="0"
     id="path146"
     d="m 59.870712,39.91584 c -2.151805,2.203804 -2.853243,8.219321 -1.084867,9.38355 0.921352,0.612908 2.258602,-0.641031 3.04553,-2.864911 0.51273,-1.463191 0.700992,-2.540801 0.682031,-3.985662 -0.02536,-1.512823 -0.463365,-2.71818 -1.099776,-3.012268 -0.445296,-0.20094 -1.065243,-0.01249 -1.542918,0.479291 z" />
  <path
     style="fill:#000000;stroke:none"
     inkscape:connector-curvature="0"
     id="path164"
     d="m 65.625925,47.023357 c -0.828776,0.724949 -1.545008,2.167459 -1.936503,3.929173 -0.704815,3.187005 -0.10704,5.803448 1.310056,5.751442 0.510666,-0.02322 1.188491,-0.632532 1.769115,-1.605709 1.734734,-2.907887 1.794727,-7.955495 0.111499,-8.475008 -0.427277,-0.125848 -0.786636,-0.0098 -1.254167,0.400102 z" />
  <path
     style="fill:none;fill-opacity:0.07843137;fill-rule:evenodd;stroke:#000000;stroke-width:0.77229059;stroke-linecap:butt;stroke-linejoin:miter;stroke-miterlimit:4;stroke-dasharray:none;stroke-opacity:1"
     d="M 72.183511,12.062389 48.388668,29.244428"
     id="path4432"
     inkscape:connector-curvature="0"
     sodipodi:nodetypes="cc" />
  <path
     style="fill:none;fill-rule:evenodd;stroke:#000000;stroke-width:0.77229059;stroke-linecap:butt;stroke-linejoin:miter;stroke-miterlimit:4;stroke-dasharray:none;stroke-opacity:1"
     d="M 48.384942,29.228886 47.740424,77.171303"
     id="path4434"
     inkscape:connector-curvature="0"
     sodipodi:nodetypes="cc" />
  <path
     sodipodi:nodetypes="cc"
     inkscape:connector-curvature="0"
     id="path4459"
     d="M 48.388668,29.244428 2.5754127,20.466895"
     style="fill:none;fill-opacity:0.07843137;fill-rule:evenodd;stroke:#000000;stroke-width:0.77229059;stroke-linecap:butt;stroke-linejoin:miter;stroke-miterlimit:4;stroke-dasharray:none;stroke-opacity:1" />
</svg>
