<?xml version="1.0" encoding="UTF-8" standalone="no"?>
<svg
   xmlns:dc="http://purl.org/dc/elements/1.1/"
   xmlns:cc="http://creativecommons.org/ns#"
   xmlns:rdf="http://www.w3.org/1999/02/22-rdf-syntax-ns#"
   xmlns:svg="http://www.w3.org/2000/svg"
   xmlns="http://www.w3.org/2000/svg"
   id="svg2"
   preserveAspectRatio="xMidYMid meet"
   viewBox="0 0 80 80"
   height="100"
   width="100"
   version="1.0">
  <defs
     id="defs206" />
  <metadata
     id="metadata4">
Created by potrace 1.11, written by Peter Selinger 2001-2013
<rdf:RDF>
  <cc:Work
     rdf:about="">
    <dc:format>image/svg+xml</dc:format>
    <dc:type
       rdf:resource="http://purl.org/dc/dcmitype/StillImage" />
    <dc:title></dc:title>
  </cc:Work>
</rdf:RDF>
</metadata>
  <path
     id="path4465"
     d="M 48.162305,28.781606 71.407566,11.652157 25.602159,2.817333 2.0253294,21.123034 Z"
     style="fill:#ffffff;fill-opacity:1;fill-rule:evenodd;stroke:none;stroke-width:0.80000001px;stroke-linecap:butt;stroke-linejoin:miter;stroke-opacity:1" />
  <path
     id="path4463"
     d="M 48.049176,29.017638 48.265433,77.013304 71.725224,58.709558 70.596114,12.133995 Z"
     style="fill:#d7d7d7;fill-opacity:1;fill-rule:evenodd;stroke:none;stroke-width:0.80000001px;stroke-linecap:butt;stroke-linejoin:miter;stroke-opacity:1" />
  <path
     id="path4461"
     d="M 48.041357,28.549483 48.612639,76.773362 2.8072321,67.938539 2.95773,20.873318 Z"
     style="fill:#ebebeb;fill-opacity:1;fill-rule:evenodd;stroke:none;stroke-width:0.80000001px;stroke-linecap:butt;stroke-linejoin:miter;stroke-opacity:1" />
  <path
     id="path4457"
     d="M 2.9460015,20.171086 3.0374,67.700552 48.612639,76.773362 71.694801,58.419159 71.635779,11.297131 25.600204,2.7002943 Z"
     style="fill:none;fill-rule:evenodd;stroke:#000000;stroke-width:4;stroke-linecap:butt;stroke-linejoin:miter;stroke-miterlimit:4;stroke-dasharray:none;stroke-opacity:1" />
  <path
     d="m 27.086483,8.0894306 c -0.933423,0.4398213 -1.432709,1.0170307 -1.305078,1.5124975 0.245627,0.9535439 2.447354,1.7222029 4.994964,1.7438289 1.079467,0.01103 1.320405,-0.02109 2.640942,-0.351326 0.965299,-0.238688 1.582014,-0.437426 1.831446,-0.591397 C 35.696348,10.128235 36.117868,9.48134 36.040806,9.1821894 35.896321,8.6212833 34.786386,7.9501947 33.559887,7.6779782 32.788351,7.5078787 31.073605,7.3913349 30.191308,7.4491436 c -0.989949,0.065599 -2.561056,0.390559 -3.104825,0.640287 z"
     id="path10"
     style="fill:#000000;stroke:none" />
  <path
     d="m 15.490968,16.828364 c -3.131858,1.773724 2.16538,3.878315 6.818786,2.709523 1.329889,-0.332605 1.957506,-0.643808 2.305092,-1.152031 1.183969,-1.750458 -3.847954,-3.095982 -7.720339,-2.068568 -0.514165,0.132452 -1.142353,0.364046 -1.403539,0.511076 z"
     id="path12"
     style="fill:#000000;stroke:none" />
  <path
     d="m 32.061847,14.633287 c -0.510621,0.301004 -0.729316,0.496901 -0.832568,0.792656 -0.514709,1.368713 2.677681,2.500249 6.185206,2.184885 0.924223,-0.08854 2.59972,-0.550051 3.12663,-0.865219 1.175064,-0.701443 1.172076,-1.448332 -0.01534,-2.149305 -1.069849,-0.63157 -3.045928,-0.94995 -5.114776,-0.815774 -0.940799,0.06291 -2.791791,0.539714 -3.349154,0.852757 z"
     id="path14"
     style="fill:#000000;stroke:none" />
  <path
     d="m 49.127344,12.191174 c -0.943059,0.402426 -1.486675,1.001025 -1.35423,1.515191 0.301015,1.168556 3.390425,1.977711 6.432081,1.672695 0.844626,-0.08798 2.559641,-0.589569 3.08655,-0.904736 0.403249,-0.25341 0.813012,-0.907245 0.738358,-1.197045 -0.02889,-0.11218 -0.203974,-0.366147 -0.392643,-0.556797 -1.304138,-1.308907 -5.993691,-1.596216 -8.510116,-0.529308 z"
     id="path26"
     style="fill:#000000;stroke:none" />
  <path
     d="m 37.676301,20.83308 c -0.506372,0.240096 -0.939229,0.610787 -1.044891,0.897191 -0.0483,0.122097 -0.05112,0.382015 -0.003,0.568983 0.173386,0.673091 1.573691,1.34913 3.296225,1.573322 2.788976,0.378138 6.029211,-0.316967 6.718995,-1.431719 0.557948,-0.891375 -0.462046,-1.755102 -2.560507,-2.161582 -2.131325,-0.417952 -4.883177,-0.187587 -6.406827,0.553805 z"
     id="path50"
     style="fill:#000000;stroke:none" />
  <path
     d="m 54.344029,32.210462 c -1.342617,1.173263 -2.290442,4.188737 -2.168012,6.908581 0.100887,2.326641 1.242281,3.468128 2.445524,2.450395 0.877467,-0.734442 1.619942,-2.341263 2.008569,-4.315503 0.25055,-1.310635 0.275461,-2.413615 0.06883,-3.48685 -0.189815,-1.007794 -0.467301,-1.504535 -0.984591,-1.80991 -0.470271,-0.277611 -0.851428,-0.209332 -1.370267,0.253286 z"
     id="path130"
     style="fill:#000000;stroke:none" />
  <path
     d="m 22.265299,43.823306 c -1.924632,1.313214 -2.420052,4.072589 -1.172831,6.592412 0.394351,0.795605 0.817453,1.354525 1.526959,2.019106 0.773107,0.717978 1.321132,1.065279 2.196639,1.368097 3.21803,1.114962 6.025517,-0.834393 6.032112,-4.175632 0.0031,-0.878051 -0.359959,-2.210064 -0.839014,-3.063602 -1.043664,-1.884409 -3.02019,-3.249398 -4.945984,-3.41126 -0.866862,-0.07576 -2.13372,0.230636 -2.797881,0.670879 z"
     id="path138"
     style="fill:#000000;stroke:none" />
  <path
     d="m 59.87055,39.539441 c -2.114703,2.239431 -2.715587,8.265823 -0.928015,9.400359 0.931458,0.597436 2.247582,-0.67866 2.997262,-2.915371 0.488224,-1.471549 0.658465,-2.552153 0.615378,-3.996495 -0.05062,-1.512189 -0.508693,-2.710063 -1.149926,-2.993483 -0.44859,-0.193476 -1.065303,0.0053 -1.534699,0.50499 z"
     id="path146"
     style="fill:#000000;stroke:none" />
  <path
     d="m 65.743652,46.549858 c -0.816554,0.738688 -1.508597,2.192958 -1.870618,3.960964 -0.651495,3.198331 -0.01011,5.804426 1.40592,5.728763 0.510207,-0.03175 1.177762,-0.652291 1.742053,-1.635029 1.685932,-2.93645 1.661625,-7.984356 -0.03004,-8.475688 -0.429319,-0.118695 -0.78669,0.0033 -1.247311,0.42099 z"
     id="path164"
     style="fill:#000000;stroke:none" />
  <path
     id="path4432"
     d="M 71.716494,11.484257 48.2119,29.061261"
     style="fill:none;fill-opacity:0.07843137;fill-rule:evenodd;stroke:#000000;stroke-width:0.77229059;stroke-linecap:butt;stroke-linejoin:miter;stroke-miterlimit:4;stroke-dasharray:none;stroke-opacity:1" />
  <path
     id="path4434"
     d="M 48.207915,29.045784 48.3641,76.992278"
     style="fill:none;fill-rule:evenodd;stroke:#000000;stroke-width:0.77229059;stroke-linecap:butt;stroke-linejoin:miter;stroke-miterlimit:4;stroke-dasharray:none;stroke-opacity:1" />
  <path
     style="fill:none;fill-opacity:0.07843137;fill-rule:evenodd;stroke:#000000;stroke-width:0.77229059;stroke-linecap:butt;stroke-linejoin:miter;stroke-miterlimit:4;stroke-dasharray:none;stroke-opacity:1"
     d="M 48.2119,29.061261 2.2584534,21.050009"
     id="path4459" />
</svg>
