<?xml version="1.0" encoding="UTF-8" standalone="no"?>
<svg
   xmlns:dc="http://purl.org/dc/elements/1.1/"
   xmlns:cc="http://creativecommons.org/ns#"
   xmlns:rdf="http://www.w3.org/1999/02/22-rdf-syntax-ns#"
   xmlns:svg="http://www.w3.org/2000/svg"
   xmlns="http://www.w3.org/2000/svg"
   xmlns:xlink="http://www.w3.org/1999/xlink"
   xmlns:sodipodi="http://sodipodi.sourceforge.net/DTD/sodipodi-0.dtd"
   xmlns:inkscape="http://www.inkscape.org/namespaces/inkscape"
   inkscape:version="1.0 (4035a4fb49, 2020-05-01)"
   sodipodi:docname="awards.svg"
   viewBox="0 0 100 100"
   version="1.0"
   width="100"
   height="100"
   fill="currentColor"
   id="svg79">
  <sodipodi:namedview
     inkscape:current-layer="weekly"
     inkscape:window-maximized="0"
     inkscape:window-y="34"
     inkscape:window-x="0"
     inkscape:cy="47.0362"
     inkscape:cx="37.647619"
     inkscape:zoom="10.26"
     showgrid="false"
     id="namedview56"
     inkscape:window-height="1582"
     inkscape:window-width="2501"
     inkscape:pageshadow="2"
     inkscape:pageopacity="0"
     guidetolerance="10"
     gridtolerance="10"
     objecttolerance="10"
     borderopacity="1"
     bordercolor="#666666"
     pagecolor="#ffffff"
     inkscape:document-rotation="0"
     inkscape:pagecheckerboard="true" />
  <metadata
     id="metadata85">
    <rdf:RDF>
      <cc:Work
         rdf:about="">
        <dc:format>image/svg+xml</dc:format>
        <dc:type
           rdf:resource="http://purl.org/dc/dcmitype/StillImage" />
        <dc:title />
      </cc:Work>
    </rdf:RDF>
  </metadata>
  <defs
     id="defs83">
    <linearGradient
       id="linearGradient897">
      <stop
         style="stop-color:#f2e043;stop-opacity:1;"
         offset="0"
         id="stop893" />
      <stop
         style="stop-color:#f2e043;stop-opacity:0;"
         offset="1"
         id="stop895" />
    </linearGradient>
    <linearGradient
       xlink:href="#linearGradient897"
       id="linearGradient899"
       x1="8.2605486"
       y1="7.8598299"
       x2="92.114021"
       y2="91.713303"
       gradientUnits="userSpaceOnUse" />
  </defs>
  <g
     style="display:inline"
     inkscape:label="weekly"
     id="weekly"
     inkscape:groupmode="layer">
    <g
       id="g10"
       transform="translate(4.8175035,2.2201271)">
      <rect
         style="stroke:#9a9a9a;stroke-width:6.742;stroke-linejoin:round;stroke-opacity:1"
         id="rect907"
         width="77.290894"
         height="77.290894"
         x="6.5370498"
         y="9.1344261"
         rx="13.7845" />
    </g>
  </g>
  <g
     style="display:inline"
     inkscape:label="monthly"
     id="monthly"
     inkscape:groupmode="layer">
    <circle
       style="fill:#ffffff;fill-opacity:1;stroke:none;stroke-width:6.742;stroke-linejoin:round;stroke-opacity:1"
       id="path1005"
       cx="50"
       cy="50"
       r="44.511703" />
    <g
       id="g1050"
       transform="translate(4.5e-7,1.886724)">
      <path
         style="stroke-width:0.102495"
         d="m 53.139421,89.840246 c 5.151603,-3.547454 9.428617,-0.43258 13.344848,3.089917 -5.056181,1.373638 -10.410417,1.996705 -13.344848,-3.089917 z"
         id="path2" />
      <path
         style="stroke-width:0.102495"
         d="m 54.37756,86.786921 c 0.228595,-6.25076 5.280645,-7.823136 10.44424,-8.863152 -1.915734,4.876609 -4.611762,9.544641 -10.44424,8.863152 z"
         id="path4" />
      <path
         style="stroke-width:0.102495"
         d="m 62.326047,87.023684 c 4.833459,-3.970143 9.358305,-1.227788 13.559062,1.951095 -4.922014,1.796019 -10.204606,2.869347 -13.559062,-1.951095 z"
         id="path6" />
      <path
         style="stroke-width:0.102495"
         d="m 66.808153,84.059529 c -3.011918,-5.481945 0.516913,-9.424414 4.415074,-12.967666 0.858672,5.168617 0.940658,10.559034 -4.415074,12.967666 z"
         id="path8" />
      <path
         style="stroke-width:0.102495"
         d="m 70.720387,83.93756 c 3.555551,-5.145249 8.660109,-3.752342 13.572386,-1.850035 -4.238783,3.079667 -9.023044,5.563633 -13.572386,1.85065 z"
         id="path10" />
      <path
         style="stroke-width:0.102495"
         d="m 75.742641,79.347834 c -4.60141,-4.236835 -2.512357,-9.09807 0.05409,-13.698455 2.460494,4.625701 4.255284,9.708838 -0.05409,13.698455 z"
         id="path12" />
      <path
         style="stroke-width:0.102495"
         d="m 78.187147,78.830234 c 2.512459,-5.728137 7.788594,-5.331379 12.97279,-4.398367 -3.57564,3.829623 -7.800073,7.178237 -12.97279,4.398367 z"
         id="path14" />
      <path
         style="stroke-width:0.102495"
         d="m 82.379397,73.29243 c -5.307396,-3.310588 -4.156377,-8.474286 -2.487554,-13.470916 3.27574,4.08955 5.982223,8.751022 2.487554,13.470916 z"
         id="path16" />
      <path
         style="stroke-width:0.102495"
         d="m 84.232096,72.517568 c 1.383887,-6.099887 6.639831,-6.708092 11.906843,-6.772356 -2.786941,4.4367 -6.301904,8.52379 -11.906843,6.772356 z"
         id="path18" />
      <path
         style="stroke-width:0.102495"
         d="m 85.808264,63.553356 c -5.651471,-2.680244 -5.099126,-7.942337 -4.013499,-13.09681 3.722413,3.686745 6.944856,8.007934 4.013499,13.09681 z"
         id="path20" />
      <path
         style="stroke-width:0.102495"
         d="m 86.750091,65.297821 c 0.649736,-6.221138 5.796399,-7.449028 11.019236,-8.13841 -2.240438,4.736294 -5.245181,9.211737 -11.019236,8.13841 z"
         id="path22" />
      <path
         style="stroke-width:0.102495"
         d="m 88.183985,53.35613 c -6.107574,-1.349859 -6.74499,-6.602728 -6.838568,-11.869945 4.452177,2.76224 8.558742,6.254244 6.838568,11.869945 z"
         id="path24" />
      <path
         style="stroke-width:0.102495"
         d="m 89.379179,57.943805 c -1.767526,-6.000056 2.524042,-9.09438 7.090911,-11.720302 -0.268639,5.232575 -1.343402,10.514961 -7.090911,11.720302 z"
         id="path26" />
      <path
         style="stroke-width:0.102495"
         d="m 85.78141,41.570231 c -6.247172,0.312835 -8.250539,-4.584294 -9.733231,-9.639039 5.023997,1.486895 9.907678,3.769048 9.733231,9.639039 z"
         id="path28" />
      <path
         style="stroke-width:0.102495"
         d="m 89.803621,48.303127 c -3.754289,-5.002986 -0.816075,-9.403198 2.544028,-13.459642 1.578321,4.996015 2.418882,10.32022 -2.544028,13.459642 z"
         id="path30" />
      <path
         style="stroke-width:0.102495"
         d="m 83.048689,32.670591 c -6.2442,-0.360783 -7.709878,-5.444534 -8.641558,-10.629756 4.835611,2.018127 9.445836,4.81214 8.641558,10.629756 z"
         id="path32" />
      <path
         style="stroke-width:0.102495"
         d="m 87.034514,38.067977 c -4.691913,-4.135673 -2.708328,-9.041083 -0.241991,-13.696406 2.559915,4.572302 4.46417,9.615055 0.241991,13.696406 z"
         id="path34" />
      <path
         style="stroke-width:0.102495"
         d="m 46.860578,89.930604 c -5.151603,-3.547454 -9.428617,-0.43258 -13.344848,3.089916 5.056181,1.373638 10.410417,1.996705 13.344848,-3.089916 z"
         id="path38" />
      <path
         style="stroke-width:0.102495"
         d="m 45.622439,86.877278 c -0.228595,-6.250759 -5.280645,-7.823135 -10.44424,-8.863152 1.915734,4.876609 4.611762,9.544641 10.44424,8.863152 z"
         id="path40" />
      <path
         style="stroke-width:0.102495"
         d="m 37.673952,87.114041 c -4.833459,-3.970143 -9.358305,-1.227787 -13.559062,1.951095 4.922014,1.79602 10.204606,2.869347 13.559062,-1.951095 z"
         id="path42" />
      <path
         style="stroke-width:0.102495"
         d="M 33.191846,84.149886 C 36.203764,78.667942 32.674933,74.725472 28.776772,71.18222 27.9181,76.350838 27.836114,81.741254 33.191846,84.149886 Z"
         id="path44" />
      <path
         style="stroke-width:0.102495"
         d="m 29.279612,84.027917 c -3.555551,-5.145248 -8.660109,-3.752341 -13.572386,-1.850034 4.238783,3.079667 9.023044,5.563633 13.572386,1.850649 z"
         id="path46" />
      <path
         style="stroke-width:0.102495"
         d="m 24.257358,79.438192 c 4.60141,-4.236836 2.512357,-9.098071 -0.05409,-13.698456 -2.460494,4.625702 -4.255284,9.708838 0.05409,13.698456 z"
         id="path48" />
      <path
         style="stroke-width:0.102495"
         d="M 21.812852,78.920592 C 19.300393,73.192454 14.024258,73.589213 8.8400615,74.522224 12.415702,78.351847 16.640135,81.700461 21.812852,78.920592 Z"
         id="path50" />
      <path
         style="stroke-width:0.102495"
         d="m 17.620602,73.382788 c 5.307396,-3.310589 4.156377,-8.474286 2.487554,-13.470917 -3.27574,4.08955 -5.982223,8.751022 -2.487554,13.470917 z"
         id="path52" />
      <path
         style="stroke-width:0.102495"
         d="M 15.767903,72.607926 C 14.384016,66.508039 9.1280725,65.899833 3.8610599,65.835569 6.6480012,70.27227 10.162964,74.35936 15.767903,72.607926 Z"
         id="path54" />
      <path
         style="stroke-width:0.102495"
         d="m 14.191735,63.643714 c 5.651471,-2.680244 5.099126,-7.942337 4.013499,-13.09681 -3.722413,3.686745 -6.944856,8.007933 -4.013499,13.09681 z"
         id="path56" />
      <path
         style="stroke-width:0.102495"
         d="M 13.249908,65.388178 C 12.600172,59.16704 7.4535093,57.93915 2.2306721,57.249769 c 2.240438,4.736293 5.2451811,9.211737 11.0192359,8.138409 z"
         id="path58" />
      <path
         style="stroke-width:0.102495"
         d="m 11.816014,53.446487 c 6.107574,-1.349859 6.74499,-6.602727 6.838568,-11.869945 -4.452177,2.76224 -8.558742,6.254245 -6.838568,11.869945 z"
         id="path60" />
      <path
         style="stroke-width:0.102495"
         d="M 10.62082,58.034163 C 12.388346,52.034106 8.0967781,48.939782 3.5299089,46.313861 3.7985482,51.546435 4.8733107,56.828822 10.62082,58.034163 Z"
         id="path62" />
      <path
         style="stroke-width:0.102495"
         d="m 14.218589,41.660588 c 6.247172,0.312835 8.250539,-4.584293 9.733231,-9.639039 -5.023997,1.486895 -9.907678,3.769049 -9.733231,9.639039 z"
         id="path64" />
      <path
         style="stroke-width:0.102495"
         d="M 10.196378,48.393484 C 13.950667,43.390499 11.012453,38.990286 7.6523496,34.933842 6.0740292,39.929858 5.2334678,45.254063 10.196378,48.393484 Z"
         id="path66" />
      <path
         style="stroke-width:0.102495"
         d="m 16.95131,32.760948 c 6.2442,-0.360782 7.709878,-5.444534 8.641558,-10.629755 -4.835611,2.018126 -9.445836,4.81214 -8.641558,10.629755 z"
         id="path68" />
      <path
         style="stroke-width:0.102495"
         d="m 12.965485,38.158334 c 4.691913,-4.135672 2.708328,-9.041083 0.241991,-13.696405 -2.559915,4.572301 -4.4641697,9.615055 -0.241991,13.696405 z"
         id="path70" />
      <ellipse
         style="stroke-width:0.120656"
         id="ellipse74"
         ry="1.8118519"
         rx="1.8119347"
         cy="88.670044"
         cx="49.981934" />
    </g>
    <circle
       style="fill:#ffffff;fill-opacity:1;stroke:none;stroke-width:4.6789;stroke-linejoin:round"
       id="path1037"
       cx="141.881"
       cy="-791.10864"
       r="30.410032" />
  </g>
  <g
     style="display:inline"
     inkscape:label="early"
     id="early"
     inkscape:groupmode="layer">
    <g
       id="g58"
       transform="matrix(0.08735387,0,0,0.08735387,6.3230908,6.323665)">
      <g
         transform="matrix(0.1,0,0,-0.1,0,512)"
         id="g14">
        <path
           d="m 4731.9,5008.2 c -264.3,-44.1 -582.2,-170.4 -789,-310.3 -134.1,-91.9 -469.2,-423.2 -609,-601.3 -308.3,-394.5 -547.7,-880.9 -666.4,-1359.7 -40.2,-155.1 -90,-425.2 -90,-476.9 0,-5.8 1089.7,-11.5 2422.6,-11.5 2223.4,0 2422.6,1.9 2422.6,30.6 0,17.2 -21.1,139.8 -47.9,273.9 -109.2,538.1 -329.4,1032.2 -655,1474.6 -134.1,180 -455.8,513.2 -609,630 -153.2,114.9 -459.6,260.5 -660.7,310.2 -180.1,46.1 -553.5,67.2 -718.2,40.4 z"
           id="path4-3" />
        <path
           d="m 2558.3,1511.3 v -411.7 h 813.9 813.9 V 199.4 -700.7 H 3372.2 2558.3 V -957.3 -1212 l -411.7,-82.3 -411.7,-82.3 3.8,-296.8 5.7,-298.7 402.2,-82.4 c 222.1,-44 404.1,-80.4 407.9,-82.3 1.9,0 3.8,-116.8 3.8,-258.5 V -2654 h 327.5 325.6 l -5.8,-80.4 -5.7,-82.3 -367.7,-9.6 -369.6,-9.6 -810.1,-808.2 -808.2,-810.1 H 691.1 c -158.9,-1.9 -197.2,-15.3 -235.5,-90 -36.4,-67 -26.8,-120.7 32.5,-180 l 55.5,-55.5 h 461.5 c 455.8,0 459.6,0 511.3,46 111.1,95.8 49.8,256.6 -105.3,277.7 l -78.5,11.5 633.9,647.3 633.9,645.4 h 304.5 304.5 v -162.8 -162.8 h 813.9 813.9 v -488.3 -488.3 h -113 c -95.8,0 -118.7,-7.7 -162.8,-49.8 -80.4,-82.4 -63.2,-199.2 40.2,-252.8 55.5,-30.7 733.5,-30.7 796.7,-1.9 97.7,44.1 116.8,176.2 40.2,254.7 -44,42.1 -67,49.8 -162.8,49.8 h -113 v 488.3 488.3 h 813.9 813.9 v 162.8 162.8 h 302.6 l 300.7,1.9 635.8,-647.3 635.8,-647.3 -76.6,-11.5 c -155.1,-21.1 -216.4,-181.9 -105.3,-277.7 51.7,-46 55.5,-46 511.3,-46 h 461.5 l 55.5,55.5 c 59.4,59.4 69,113 32.6,180 -38.3,74.7 -76.6,88.1 -235.5,90 h -153.2 l -808.2,810.1 -810.1,808.2 -369.6,9.6 -367.7,9.6 -5.7,82.3 -5.7,80.4 h 325.6 327.5 v 258.5 c 0,141.7 1.9,258.5 5.7,258.5 1.9,1.9 185.8,38.3 406,82.3 l 402.2,82.4 5.7,298.7 3.8,296.8 -411.7,82.3 -411.7,82.3 V 354.6 1923 h -651.1 -651.1 v -333.2 -333.2 l 132.1,-40.2 c 469.2,-141.7 764.1,-635.8 664.5,-1112.7 -76.6,-365.8 -325.6,-645.4 -664.5,-748.8 l -132.1,-40.2 v -572.6 -572.6 H 5976.8 5814 v 572.6 570.7 l -128.3,42.1 c -302.6,99.6 -536.2,331.3 -635.8,630 -55.5,162.8 -55.5,438.6 0,603.3 103.4,304.5 354.3,549.6 654.9,635.8 l 109.2,30.6 V 1589.7 1923 H 4186.1 2558.3 Z m 934.5,-2759.7 c 49.8,-55.5 53.6,-103.4 13.4,-178.1 -72.8,-143.6 -296.8,-82.4 -296.8,82.3 0,49.8 13.4,76.6 61.3,116.8 72.8,61.4 155.1,55.6 222.1,-21 z m 651.2,0 c 49.8,-55.5 53.6,-103.4 13.4,-178.1 -47.9,-93.8 -172.4,-109.2 -249,-30.6 -67,65.1 -63.2,149.4 9.6,224.1 49.8,47.9 68.9,55.5 120.6,46 34.5,-5.8 80.5,-32.6 105.4,-61.4 z m 651.1,0 c 90,-103.4 19.2,-256.6 -120.6,-256.6 -153.2,0 -214.5,160.9 -105.3,271.9 49.8,47.9 68.9,55.5 120.6,46 34.4,-5.7 80.4,-32.5 105.3,-61.3 z m 651.1,0 c 91.9,-103.4 19.1,-256.6 -120.7,-256.6 -132.1,0 -206.8,139.8 -132.1,245.1 63.2,92 176.2,95.8 252.8,11.5 z m 1285,19.2 c 116.8,-97.7 49.8,-275.8 -103.4,-275.8 -168.5,0 -218.3,224.1 -67,300.7 70.8,36.4 105.3,30.6 170.4,-24.9 z"
           id="path6-6" />
        <path
           d="m 2558.3,697.3 v -76.6 h 651.1 651.1 v 76.6 76.7 h -651.1 -651.1 z"
           id="path8-7" />
        <path
           d="m 2558.3,209 v -86.2 h 653 651.1 l -5.8,82.3 -5.7,80.4 -645.4,5.7 -647.3,3.8 v -86 z"
           id="path10-5" />
        <path
           d="m 2558.3,-288.9 v -86.2 h 651.1 651.1 v 86.2 86.2 h -651.1 -651.1 z"
           id="path12-3" />
      </g>
    </g>
  </g>
</svg>
