<?xml version="1.0" encoding="UTF-8" standalone="no"?>
<!-- Created with Inkscape (http://www.inkscape.org/) -->

<svg
   xmlns:dc="http://purl.org/dc/elements/1.1/"
   xmlns:cc="http://creativecommons.org/ns#"
   xmlns:rdf="http://www.w3.org/1999/02/22-rdf-syntax-ns#"
   xmlns:svg="http://www.w3.org/2000/svg"
   xmlns="http://www.w3.org/2000/svg"
   xmlns:sodipodi="http://sodipodi.sourceforge.net/DTD/sodipodi-0.dtd"
   xmlns:inkscape="http://www.inkscape.org/namespaces/inkscape"
   viewBox="0 0 100 100"
   version="1.0"
   inkscape:output_extension="org.inkscape.output.svg.inkscape"
   inkscape:version="0.92.4 5da689c313, 2019-01-14"
   width="100"
   height="100"
   fill="currentColor"
   id="svg79"
   sodipodi:docname="laurel-wreath.svg">
  <metadata
     id="metadata85">
    <rdf:RDF>
      <cc:Work
         rdf:about="">
        <dc:format>image/svg+xml</dc:format>
        <dc:type
           rdf:resource="http://purl.org/dc/dcmitype/StillImage" />
      </cc:Work>
    </rdf:RDF>
  </metadata>
  <defs
     id="defs83" />
  <sodipodi:namedview
     pagecolor="#ffffff"
     bordercolor="#666666"
     borderopacity="1"
     objecttolerance="10"
     gridtolerance="10"
     guidetolerance="10"
     inkscape:pageopacity="0"
     inkscape:pageshadow="2"
     inkscape:window-width="1685"
     inkscape:window-height="1562"
     id="namedview81"
     showgrid="false"
     inkscape:zoom="3.337544"
     inkscape:cx="107.2375"
     inkscape:cy="11.944598"
     inkscape:window-x="0"
     inkscape:window-y="34"
     inkscape:window-maximized="0"
     inkscape:current-layer="svg79" />
  <g
     id="laurel"
     transform="translate(91.881,-848.75)">
    <g
       transform="matrix(0.10249499,0,0,0.10249499,-80.595408,838.79897)"
       id="g76">
      <g
         transform="matrix(-1,0,0,1,755.44,-0.88158)"
         id="g36">
        <path
           d="m 347.09,896.45 c -50.262,-34.611 -91.991,-4.2205 -130.2,30.147 49.331,13.402 101.57,19.481 130.2,-30.147 z"
           inkscape:connector-curvature="0"
           id="path2" />
        <path
           d="m 335.01,866.66 c -2.2303,-60.986 -51.521,-76.327 -101.9,-86.474 18.691,47.579 44.995,93.123 101.9,86.474 z"
           inkscape:connector-curvature="0"
           id="path4" />
        <path
           d="m 257.46,868.97 c -47.158,-38.735 -91.305,-11.979 -132.29,19.036 48.022,17.523 99.562,27.995 132.29,-19.036 z"
           inkscape:connector-curvature="0"
           id="path6" />
        <path
           d="m 213.73,840.05 c 29.386,-53.485 -5.0433,-91.95 -43.076,-126.52 -8.3777,50.428 -9.1776,103.02 43.076,126.52 z"
           inkscape:connector-curvature="0"
           id="path8" />
        <path
           d="m 175.56,838.86 c -34.69,-50.2 -84.493,-36.61 -132.42,-18.05 41.356,30.047 88.034,54.282 132.42,18.056 z"
           inkscape:connector-curvature="0"
           id="path10" />
        <path
           d="m 126.56,794.08 c 44.894,-41.337 24.512,-88.766 -0.52771,-133.65 -24.006,45.131 -41.517,94.725 0.52771,133.65 z"
           inkscape:connector-curvature="0"
           id="path12" />
        <path
           d="M 102.71,789.03 C 78.197,733.143 26.72,737.014 -23.86,746.117 c 34.886,37.364 76.102,70.035 126.57,42.913 z"
           inkscape:connector-curvature="0"
           id="path14" />
        <path
           d="M 61.808,735 C 113.59,702.7 102.36,652.32 86.078,603.57 54.118,643.47 27.712,688.95 61.808,735 Z"
           inkscape:connector-curvature="0"
           id="path16" />
        <path
           d="M 43.732,727.44 C 30.23,667.926 -21.05,661.992 -72.438,661.365 c 27.191,43.287 61.485,83.163 116.17,66.075 z"
           inkscape:connector-curvature="0"
           id="path18" />
        <path
           d="M 28.354,639.98 C 83.493,613.83 78.104,562.49 67.512,512.2 31.194,548.17 -0.246,590.33 28.354,639.98 Z"
           inkscape:connector-curvature="0"
           id="path20" />
        <path
           d="m 19.165,657 c -6.3392,-60.697 -56.553,-72.677 -107.51,-79.403 21.859,46.21 51.175,89.875 107.51,79.403 z"
           inkscape:connector-curvature="0"
           id="path22" />
        <path
           d="m 5.1751,540.49 c 59.589,-13.17 65.808,-64.42 66.721,-115.81 -43.438,26.95 -83.504,61.02 -66.721,115.81 z"
           inkscape:connector-curvature="0"
           id="path24" />
        <path
           d="m -6.4859,585.25 c 17.245,-58.54 -24.626,-88.73 -69.183,-114.35 2.621,51.052 13.107,102.59 69.183,114.35 z"
           inkscape:connector-curvature="0"
           id="path26" />
        <path
           d="m 28.616,425.5 c 60.951,3.0522 80.497,-44.727 94.963,-94.044 -49.017,14.507 -96.665,36.773 -94.963,94.044 z"
           inkscape:connector-curvature="0"
           id="path28" />
        <path
           d="m -10.627,491.19 c 36.629,-48.812 7.9621,-91.743 -24.821,-131.32 -15.399,48.744 -23.6,100.69 24.821,131.32 z"
           inkscape:connector-curvature="0"
           id="path30" />
        <path
           d="M 55.278,338.67 C 116.2,335.15 130.5,285.55 139.59,234.96 92.411,254.65 47.431,281.91 55.278,338.67 Z"
           inkscape:connector-curvature="0"
           id="path32" />
        <path
           d="M 16.39,391.33 C 62.167,350.98 42.814,303.12 18.751,257.7 -6.225,302.31 -24.804,351.51 16.39,391.33 Z"
           inkscape:connector-curvature="0"
           id="path34" />
      </g>
      <g
         id="g72">
        <path
           d="m 347.09,896.45 c -50.262,-34.611 -91.991,-4.2205 -130.2,30.147 49.331,13.402 101.57,19.481 130.2,-30.147 z"
           inkscape:connector-curvature="0"
           id="path38" />
        <path
           d="m 335.01,866.66 c -2.2303,-60.986 -51.521,-76.327 -101.9,-86.474 18.691,47.579 44.995,93.123 101.9,86.474 z"
           inkscape:connector-curvature="0"
           id="path40" />
        <path
           d="m 257.46,868.97 c -47.158,-38.735 -91.305,-11.979 -132.29,19.036 48.022,17.523 99.562,27.995 132.29,-19.036 z"
           inkscape:connector-curvature="0"
           id="path42" />
        <path
           d="m 213.73,840.05 c 29.386,-53.485 -5.0433,-91.95 -43.076,-126.52 -8.3777,50.428 -9.1776,103.02 43.076,126.52 z"
           inkscape:connector-curvature="0"
           id="path44" />
        <path
           d="m 175.56,838.86 c -34.69,-50.2 -84.493,-36.61 -132.42,-18.05 41.356,30.047 88.034,54.282 132.42,18.056 z"
           inkscape:connector-curvature="0"
           id="path46" />
        <path
           d="m 126.56,794.08 c 44.894,-41.337 24.512,-88.766 -0.52771,-133.65 -24.006,45.131 -41.517,94.725 0.52771,133.65 z"
           inkscape:connector-curvature="0"
           id="path48" />
        <path
           d="M 102.71,789.03 C 78.197,733.143 26.72,737.014 -23.86,746.117 c 34.886,37.364 76.102,70.035 126.57,42.913 z"
           inkscape:connector-curvature="0"
           id="path50" />
        <path
           d="M 61.808,735 C 113.59,702.7 102.36,652.32 86.078,603.57 54.118,643.47 27.712,688.95 61.808,735 Z"
           inkscape:connector-curvature="0"
           id="path52" />
        <path
           d="M 43.732,727.44 C 30.23,667.926 -21.05,661.992 -72.438,661.365 c 27.191,43.287 61.485,83.163 116.17,66.075 z"
           inkscape:connector-curvature="0"
           id="path54" />
        <path
           d="M 28.354,639.98 C 83.493,613.83 78.104,562.49 67.512,512.2 31.194,548.17 -0.246,590.33 28.354,639.98 Z"
           inkscape:connector-curvature="0"
           id="path56" />
        <path
           d="m 19.165,657 c -6.3392,-60.697 -56.553,-72.677 -107.51,-79.403 21.859,46.21 51.175,89.875 107.51,79.403 z"
           inkscape:connector-curvature="0"
           id="path58" />
        <path
           d="m 5.1751,540.49 c 59.589,-13.17 65.808,-64.42 66.721,-115.81 -43.438,26.95 -83.504,61.02 -66.721,115.81 z"
           inkscape:connector-curvature="0"
           id="path60" />
        <path
           d="m -6.4859,585.25 c 17.245,-58.54 -24.626,-88.73 -69.183,-114.35 2.621,51.052 13.107,102.59 69.183,114.35 z"
           inkscape:connector-curvature="0"
           id="path62" />
        <path
           d="m 28.616,425.5 c 60.951,3.0522 80.497,-44.727 94.963,-94.044 -49.017,14.507 -96.665,36.773 -94.963,94.044 z"
           inkscape:connector-curvature="0"
           id="path64" />
        <path
           d="m -10.627,491.19 c 36.629,-48.812 7.9621,-91.743 -24.821,-131.32 -15.399,48.744 -23.6,100.69 24.821,131.32 z"
           inkscape:connector-curvature="0"
           id="path66" />
        <path
           d="M 55.278,338.67 C 116.2,335.15 130.5,285.55 139.59,234.96 92.411,254.65 47.431,281.91 55.278,338.67 Z"
           inkscape:connector-curvature="0"
           id="path68" />
        <path
           d="M 16.39,391.33 C 62.167,350.98 42.814,303.12 18.751,257.7 -6.225,302.31 -24.804,351.51 16.39,391.33 Z"
           inkscape:connector-curvature="0"
           id="path70" />
      </g>
      <ellipse
         transform="matrix(1.3462,0,0,1.0294,-97.05,-48.372)"
         cx="352.54324"
         cy="905.89008"
         rx="13.131983"
         ry="17.172594"
         id="ellipse74" />
    </g>
  </g>
  <g
     transform="matrix(0.08735387,0,0,0.08735387,6.3230908,6.323665)"
     id="lander"
     inkscape:label="#g16">
    <g
       transform="matrix(0.1,0,0,-0.1,0,512)"
       id="g14">
      <path
         inkscape:connector-curvature="0"
         d="m 4731.9,5008.2 c -264.3,-44.1 -582.2,-170.4 -789,-310.3 -134.1,-91.9 -469.2,-423.2 -609,-601.3 -308.3,-394.5 -547.7,-880.9 -666.4,-1359.7 -40.2,-155.1 -90,-425.2 -90,-476.9 0,-5.8 1089.7,-11.5 2422.6,-11.5 2223.4,0 2422.6,1.9 2422.6,30.6 0,17.2 -21.1,139.8 -47.9,273.9 -109.2,538.1 -329.4,1032.2 -655,1474.6 -134.1,180 -455.8,513.2 -609,630 -153.2,114.9 -459.6,260.5 -660.7,310.2 -180.1,46.1 -553.5,67.2 -718.2,40.4 z"
         id="path4-3" />
      <path
         inkscape:connector-curvature="0"
         d="m 2558.3,1511.3 v -411.7 h 813.9 813.9 V 199.4 -700.7 H 3372.2 2558.3 V -957.3 -1212 l -411.7,-82.3 -411.7,-82.3 3.8,-296.8 5.7,-298.7 402.2,-82.4 c 222.1,-44 404.1,-80.4 407.9,-82.3 1.9,0 3.8,-116.8 3.8,-258.5 V -2654 h 327.5 325.6 l -5.8,-80.4 -5.7,-82.3 -367.7,-9.6 -369.6,-9.6 -810.1,-808.2 -808.2,-810.1 H 691.1 c -158.9,-1.9 -197.2,-15.3 -235.5,-90 -36.4,-67 -26.8,-120.7 32.5,-180 l 55.5,-55.5 h 461.5 c 455.8,0 459.6,0 511.3,46 111.1,95.8 49.8,256.6 -105.3,277.7 l -78.5,11.5 633.9,647.3 633.9,645.4 h 304.5 304.5 v -162.8 -162.8 h 813.9 813.9 v -488.3 -488.3 h -113 c -95.8,0 -118.7,-7.7 -162.8,-49.8 -80.4,-82.4 -63.2,-199.2 40.2,-252.8 55.5,-30.7 733.5,-30.7 796.7,-1.9 97.7,44.1 116.8,176.2 40.2,254.7 -44,42.1 -67,49.8 -162.8,49.8 h -113 v 488.3 488.3 h 813.9 813.9 v 162.8 162.8 h 302.6 l 300.7,1.9 635.8,-647.3 635.8,-647.3 -76.6,-11.5 c -155.1,-21.1 -216.4,-181.9 -105.3,-277.7 51.7,-46 55.5,-46 511.3,-46 h 461.5 l 55.5,55.5 c 59.4,59.4 69,113 32.6,180 -38.3,74.7 -76.6,88.1 -235.5,90 h -153.2 l -808.2,810.1 -810.1,808.2 -369.6,9.6 -367.7,9.6 -5.7,82.3 -5.7,80.4 h 325.6 327.5 v 258.5 c 0,141.7 1.9,258.5 5.7,258.5 1.9,1.9 185.8,38.3 406,82.3 l 402.2,82.4 5.7,298.7 3.8,296.8 -411.7,82.3 -411.7,82.3 V 354.6 1923 h -651.1 -651.1 v -333.2 -333.2 l 132.1,-40.2 c 469.2,-141.7 764.1,-635.8 664.5,-1112.7 -76.6,-365.8 -325.6,-645.4 -664.5,-748.8 l -132.1,-40.2 v -572.6 -572.6 H 5976.8 5814 v 572.6 570.7 l -128.3,42.1 c -302.6,99.6 -536.2,331.3 -635.8,630 -55.5,162.8 -55.5,438.6 0,603.3 103.4,304.5 354.3,549.6 654.9,635.8 l 109.2,30.6 V 1589.7 1923 H 4186.1 2558.3 Z m 934.5,-2759.7 c 49.8,-55.5 53.6,-103.4 13.4,-178.1 -72.8,-143.6 -296.8,-82.4 -296.8,82.3 0,49.8 13.4,76.6 61.3,116.8 72.8,61.4 155.1,55.6 222.1,-21 z m 651.2,0 c 49.8,-55.5 53.6,-103.4 13.4,-178.1 -47.9,-93.8 -172.4,-109.2 -249,-30.6 -67,65.1 -63.2,149.4 9.6,224.1 49.8,47.9 68.9,55.5 120.6,46 34.5,-5.8 80.5,-32.6 105.4,-61.4 z m 651.1,0 c 90,-103.4 19.2,-256.6 -120.6,-256.6 -153.2,0 -214.5,160.9 -105.3,271.9 49.8,47.9 68.9,55.5 120.6,46 34.4,-5.7 80.4,-32.5 105.3,-61.3 z m 651.1,0 c 91.9,-103.4 19.1,-256.6 -120.7,-256.6 -132.1,0 -206.8,139.8 -132.1,245.1 63.2,92 176.2,95.8 252.8,11.5 z m 1285,19.2 c 116.8,-97.7 49.8,-275.8 -103.4,-275.8 -168.5,0 -218.3,224.1 -67,300.7 70.8,36.4 105.3,30.6 170.4,-24.9 z"
         id="path6-6" />
      <path
         inkscape:connector-curvature="0"
         d="m 2558.3,697.3 v -76.6 h 651.1 651.1 v 76.6 76.7 h -651.1 -651.1 z"
         id="path8-7" />
      <path
         inkscape:connector-curvature="0"
         d="m 2558.3,209 v -86.2 h 653 651.1 l -5.8,82.3 -5.7,80.4 -645.4,5.7 -647.3,3.8 v -86 z"
         id="path10-5" />
      <path
         inkscape:connector-curvature="0"
         d="m 2558.3,-288.9 v -86.2 h 651.1 651.1 v 86.2 86.2 h -651.1 -651.1 z"
         id="path12-3" />
    </g>
  </g>
</svg>
