<?xml version="1.0" encoding="UTF-8" standalone="no"?>
<svg
   xmlns:osb="http://www.openswatchbook.org/uri/2009/osb"
   xmlns:dc="http://purl.org/dc/elements/1.1/"
   xmlns:cc="http://creativecommons.org/ns#"
   xmlns:rdf="http://www.w3.org/1999/02/22-rdf-syntax-ns#"
   xmlns:svg="http://www.w3.org/2000/svg"
   xmlns="http://www.w3.org/2000/svg"
   xmlns:sodipodi="http://sodipodi.sourceforge.net/DTD/sodipodi-0.dtd"
   xmlns:inkscape="http://www.inkscape.org/namespaces/inkscape"
   id="svg2"
   preserveAspectRatio="xMidYMid meet"
   viewBox="0 0 80 80"
   height="100"
   width="100"
   version="1.0"
   inkscape:version="0.92.4 5da689c313, 2019-01-14"
   sodipodi:docname="bot_profile_picture.svg">
  <sodipodi:namedview
     pagecolor="#ffffff"
     bordercolor="#666666"
     borderopacity="1"
     objecttolerance="10"
     gridtolerance="10"
     guidetolerance="10"
     inkscape:pageopacity="0"
     inkscape:pageshadow="2"
     inkscape:window-width="2300"
     inkscape:window-height="1562"
     id="namedview21"
     showgrid="false"
     inkscape:zoom="13.66"
     inkscape:cx="36.944759"
     inkscape:cy="47.560826"
     inkscape:window-x="0"
     inkscape:window-y="34"
     inkscape:window-maximized="0"
     inkscape:current-layer="svg2" />
  <defs
     id="defs206">
    <linearGradient
       id="linearGradient6334"
       osb:paint="solid">
      <stop
         style="stop-color:#3d51bf;stop-opacity:1;"
         offset="0"
         id="stop6336" />
    </linearGradient>
  </defs>
  <metadata
     id="metadata4">
Created by potrace 1.11, written by Peter Selinger 2001-2013
<rdf:RDF>
  <cc:Work
     rdf:about="">
    <dc:format>image/svg+xml</dc:format>
    <dc:type
       rdf:resource="http://purl.org/dc/dcmitype/StillImage" />
    <dc:title></dc:title>
  </cc:Work>
</rdf:RDF>
</metadata>
  <circle
     style="opacity:1;fill:#0087bd;fill-opacity:1;stroke:none;stroke-width:5.48793983;stroke-linejoin:round;stroke-miterlimit:4;stroke-dasharray:none;stroke-opacity:1"
     id="path4886"
     cx="40.175694"
     cy="39.824303"
     r="40.134506" />
  <path
     id="path4465"
     d="M 49.587157,30.661147 69.345629,16.101115 30.411033,8.5915151 10.370728,24.151361 Z"
     style="fill:#ffffff;fill-opacity:1;fill-rule:evenodd;stroke:none;stroke-width:0.80000001px;stroke-linecap:butt;stroke-linejoin:miter;stroke-opacity:1"
     inkscape:connector-curvature="0" />
  <path
     id="path4463"
     d="M 49.490997,30.861774 49.674816,71.65809 69.615638,56.099906 68.655894,16.510678 Z"
     style="fill:#d7d7d7;fill-opacity:1;fill-rule:evenodd;stroke:none;stroke-width:0.80000001px;stroke-linecap:butt;stroke-linejoin:miter;stroke-opacity:1"
     inkscape:connector-curvature="0" />
  <path
     id="path4461"
     d="m 49.484351,30.463843 0.48559,40.990297 -38.934596,-7.5096 0.127923,-40.005438 z"
     style="fill:#ebebeb;fill-opacity:1;fill-rule:evenodd;stroke:none;stroke-width:0.80000001px;stroke-linecap:butt;stroke-linejoin:miter;stroke-opacity:1"
     inkscape:connector-curvature="0" />
  <path
     id="path4457"
     d="M 11.153299,23.342205 11.230988,63.742251 49.969941,71.45414 69.589778,55.853067 69.53961,15.799343 30.409371,8.4920322 Z"
     style="fill:none;fill-rule:evenodd;stroke:#000000;stroke-width:3.4000001;stroke-linecap:butt;stroke-linejoin:miter;stroke-miterlimit:4;stroke-dasharray:none;stroke-opacity:1"
     inkscape:connector-curvature="0" />
  <path
     d="m 31.672708,13.072798 c -0.793409,0.373848 -1.217803,0.864476 -1.109316,1.285623 0.208783,0.810512 2.080251,1.463872 4.245719,1.482254 0.917547,0.0094 1.122344,-0.01793 2.244801,-0.298627 0.820504,-0.202884 1.344712,-0.371812 1.556729,-0.502687 0.380452,-0.233579 0.738744,-0.78344 0.673242,-1.037718 -0.122813,-0.47677 -1.066257,-1.047195 -2.108781,-1.278579 -0.655806,-0.144585 -2.11334,-0.243647 -2.863293,-0.19451 -0.841456,0.05576 -2.176897,0.331975 -2.639101,0.544244 z"
     id="path10"
     style="fill:#000000;stroke:none"
     inkscape:connector-curvature="0" />
  <path
     d="m 21.81652,20.500891 c -2.662079,1.507666 1.840573,3.296568 5.795968,2.303095 1.130406,-0.282714 1.663881,-0.547237 1.959329,-0.979226 1.006373,-1.48789 -3.270761,-2.631585 -6.562288,-1.758283 -0.437041,0.112584 -0.971001,0.309439 -1.193009,0.434414 z"
     id="path12"
     style="fill:#000000;stroke:none"
     inkscape:connector-curvature="0" />
  <path
     d="m 35.901768,18.635076 c -0.434028,0.255853 -0.619919,0.422366 -0.707683,0.673758 -0.437503,1.163406 2.276029,2.125211 5.257425,1.857152 0.785589,-0.07526 2.209762,-0.467544 2.657635,-0.735436 0.998805,-0.596227 0.996265,-1.231083 -0.01304,-1.82691 -0.909371,-0.536834 -2.589038,-0.807457 -4.347559,-0.693407 -0.799679,0.05347 -2.373023,0.458756 -2.846781,0.724843 z"
     id="path14"
     style="fill:#000000;stroke:none"
     inkscape:connector-curvature="0" />
  <path
     d="m 50.40744,16.55928 c -0.8016,0.342062 -1.263674,0.850871 -1.151096,1.287912 0.255863,0.993273 2.881862,1.681055 5.467269,1.421791 0.717932,-0.07478 2.175695,-0.501134 2.623568,-0.769026 0.342761,-0.215398 0.69106,-0.771158 0.627604,-1.017488 -0.02456,-0.09535 -0.173378,-0.311225 -0.333746,-0.473277 -1.108518,-1.112571 -5.094638,-1.356784 -7.233599,-0.449912 z"
     id="path26"
     style="fill:#000000;stroke:none"
     inkscape:connector-curvature="0" />
  <path
     d="m 40.674053,23.9049 c -0.430416,0.204082 -0.798344,0.519169 -0.888157,0.762612 -0.04106,0.103783 -0.04345,0.324713 -0.0025,0.483636 0.147378,0.572127 1.337637,1.14676 2.801791,1.337324 2.37063,0.321417 5.12483,-0.269422 5.711146,-1.216962 0.474256,-0.757668 -0.392739,-1.491836 -2.176431,-1.837344 -1.811626,-0.355259 -4.1507,-0.159449 -5.445803,0.470734 z"
     id="path50"
     style="fill:#000000;stroke:none"
     inkscape:connector-curvature="0" />
  <path
     d="m 54.841622,33.575675 c -1.141224,0.997273 -1.946875,3.560426 -1.84281,5.872294 0.08575,1.977644 1.055939,2.947908 2.078695,2.082835 0.745847,-0.624275 1.376951,-1.990073 1.707284,-3.668177 0.212968,-1.11404 0.234142,-2.051573 0.05851,-2.963823 -0.161343,-0.856625 -0.397206,-1.278854 -0.836903,-1.538423 -0.39973,-0.23597 -0.723714,-0.177932 -1.164727,0.215293 z"
     id="path130"
     style="fill:#000000;stroke:none"
     inkscape:connector-curvature="0" />
  <path
     d="m 59.539165,39.805307 c -1.797497,1.903516 -2.308249,7.025949 -0.788813,7.990305 0.79174,0.507821 1.910445,-0.576861 2.547673,-2.478065 0.41499,-1.250817 0.559695,-2.16933 0.523071,-3.397021 -0.04303,-1.285361 -0.432389,-2.303554 -0.977437,-2.544461 -0.381301,-0.164454 -0.905507,0.0045 -1.304494,0.429242 z"
     id="path146"
     style="fill:#000000;stroke:none"
     inkscape:connector-curvature="0" />
  <path
     d="m 64.531302,45.764161 c -0.694071,0.627885 -1.282308,1.864015 -1.590026,3.36682 -0.55377,2.718581 -0.0086,4.933762 1.195032,4.869448 0.433676,-0.02699 1.001098,-0.554447 1.480746,-1.389774 1.433042,-2.495983 1.412381,-6.786703 -0.02553,-7.204335 -0.364922,-0.100891 -0.668687,0.0028 -1.060215,0.357841 z"
     id="path164"
     style="fill:#000000;stroke:none"
     inkscape:connector-curvature="0" />
  <path
     id="path4432"
     d="M 69.608217,15.9584 49.629313,30.898854"
     style="fill:none;fill-opacity:0.07843137;fill-rule:evenodd;stroke:#000000;stroke-width:0.65644699;stroke-linecap:butt;stroke-linejoin:miter;stroke-miterlimit:4;stroke-dasharray:none;stroke-opacity:1"
     inkscape:connector-curvature="0" />
  <path
     id="path4434"
     d="m 49.625925,30.885698 0.132758,40.75452"
     style="fill:none;fill-rule:evenodd;stroke:#000000;stroke-width:0.65644699;stroke-linecap:butt;stroke-linejoin:miter;stroke-miterlimit:4;stroke-dasharray:none;stroke-opacity:1"
     inkscape:connector-curvature="0" />
  <path
     style="fill:none;fill-opacity:0.07843137;fill-rule:evenodd;stroke:#000000;stroke-width:0.65644699;stroke-linecap:butt;stroke-linejoin:miter;stroke-miterlimit:4;stroke-dasharray:none;stroke-opacity:1"
     d="M 49.629313,30.898854 10.568883,24.08929"
     id="path4459"
     inkscape:connector-curvature="0" />
  <rect
     id="rect3738"
     width="15.074545"
     height="14.002861"
     x="23.929646"
     y="27.06673"
     style="fill:none;fill-opacity:1;stroke-width:4.89079555;stroke:#000000;stroke-opacity:1;stroke-miterlimit:4;stroke-dasharray:none"
     transform="matrix(0.98354921,0.18064038,0,1,0,0)" />
  <rect
     id="rect3740"
     width="31.358782"
     height="12.021667"
     x="15.608902"
     y="45.430466"
     style="fill:#000000;fill-opacity:1;stroke-width:1.73929441"
     transform="matrix(0.98354921,0.18064038,0,1,0,0)" />
</svg>
