<?xml version="1.0" encoding="UTF-8" standalone="no"?>
<svg
   xmlns:dc="http://purl.org/dc/elements/1.1/"
   xmlns:cc="http://creativecommons.org/ns#"
   xmlns:rdf="http://www.w3.org/1999/02/22-rdf-syntax-ns#"
   xmlns:svg="http://www.w3.org/2000/svg"
   xmlns="http://www.w3.org/2000/svg"
   version="1.0"
   width="100"
   height="100"
   viewBox="0 0 80 80"
   preserveAspectRatio="xMidYMid meet"
   id="svg2">
  <metadata
     id="metadata4245">
    <rdf:RDF>
      <cc:Work
         rdf:about="">
        <dc:format>image/svg+xml</dc:format>
        <dc:type
           rdf:resource="http://purl.org/dc/dcmitype/StillImage" />
        <dc:title></dc:title>
      </cc:Work>
    </rdf:RDF>
  </metadata>
  <defs
     id="defs4243" />
  <path
     id="die_background"
     d="M 32.757524,1.7752229 2.9930859,24.572472 l 0.071971,0.05513 V 55.045884 L 32.757525,77.8707 62.451525,55.045884 V 24.627598 l 0.07197,-0.05513 z"
     style="fill:#ffffff;stroke-width:0.98" />
  <rect
     fill="#ffffff"
     stroke="#000000"
     stroke-width="0.98"
     width="37.492878"
     height="37.492878"
     x="-18.319771"
     y="22.091122"
     transform="matrix(0.79387624,-0.60807937,0.79387624,0.60807937,0,0)"
     id="rect5209"
     style="mix-blend-mode:multiply;fill:#f2f2f2;fill-opacity:1;stroke:none" />
  <path
     fill="#ebebeb"
     stroke="#000000"
     stroke-width="0.98"
     d="M 3.0658441,24.547625 32.758681,47.371668 V 77.869921 L 3.0658441,55.045879 Z"
     id="path5211"
     style="mix-blend-mode:multiply;fill:#e5e5e5;fill-opacity:1;stroke:none" />
  <path
     fill="#ebebeb"
     stroke="#000000"
     stroke-width="0.98"
     d="M 62.451524,24.547625 32.758681,47.371668 V 77.869921 L 62.451524,55.045879 Z"
     id="path5213"
     style="mix-blend-mode:multiply;fill:#cccccc;fill-opacity:1;stroke:none" />
  <path
     id="path5174"
     style="fill:none;fill-opacity:1;stroke:#000000;stroke-width:1.6;stroke-linecap:round;stroke-linejoin:round;stroke-miterlimit:4;stroke-dasharray:none;stroke-opacity:1"
     d="M 62.021284,25.257572 32.576299,48.214386 3.1313012,25.257572" />
  <path
     id="path5176"
     style="fill:none;fill-opacity:1;stroke:#000000;stroke-width:1.6;stroke-linecap:round;stroke-linejoin:round;stroke-miterlimit:4;stroke-dasharray:none;stroke-opacity:1"
     d="M 32.710902,76.104804 V 48.214386" />
  <ellipse
     fill="#000000"
     cx="32.689651"
     cy="25.549303"
     rx="8.6599426"
     ry="6.4905639"
     id="ellipse5178-3"
     style="fill:#000000;fill-opacity:1;stroke:none;stroke-width:1.98612;stroke-miterlimit:4;stroke-dasharray:none;stroke-opacity:1" />
  <ellipse
     cy="60.580441"
     cx="-11.927384"
     fill="#000000"
     rx="2.9866006"
     ry="3.4468796"
     transform="matrix(1,0,0.50025377,0.86587884,0,0)"
     id="ellipse5180-6"
     style="fill:#000000;fill-opacity:1;stroke:none;stroke-width:1.6036;stroke-miterlimit:4;stroke-dasharray:none;stroke-opacity:1" />
  <ellipse
     fill="#000000"
     cx="78.078094"
     cy="60.501537"
     rx="2.9866006"
     ry="3.4468803"
     transform="matrix(1,0,-0.50025377,0.86587884,0,0)"
     id="ellipse5182-7"
     style="fill:#000000;fill-opacity:1;stroke:none;stroke-width:1.6036;stroke-miterlimit:4;stroke-dasharray:none;stroke-opacity:1" />
  <ellipse
     transform="matrix(1,0,0.50025377,0.86587884,0,0)"
     ry="3.4468803"
     rx="2.9866006"
     fill="#000000"
     cx="-12.278119"
     cy="48.089214"
     id="ellipse5184-5"
     style="fill:#000000;fill-opacity:1;stroke:none;stroke-width:1.6036;stroke-miterlimit:4;stroke-dasharray:none;stroke-opacity:1" />
  <ellipse
     cy="72.310005"
     cx="-11.459599"
     fill="#000000"
     rx="2.9866006"
     ry="3.4468803"
     transform="matrix(1,0,0.50025377,0.86587884,0,0)"
     id="ellipse5186-3"
     style="fill:#000000;fill-opacity:1;stroke:none;stroke-width:1.6036;stroke-miterlimit:4;stroke-dasharray:none;stroke-opacity:1" />
  <ellipse
     transform="matrix(1,0,-0.50025377,0.86587884,0,0)"
     ry="3.4468803"
     rx="2.9866006"
     cy="45.95657"
     cx="78.325424"
     fill="#000000"
     id="ellipse5188-5"
     style="fill:#000000;fill-opacity:1;stroke:none;stroke-width:1.6036;stroke-miterlimit:4;stroke-dasharray:none;stroke-opacity:1" />
  <ellipse
     fill="#000000"
     cx="86.007103"
     cy="62.103756"
     rx="2.9866006"
     ry="3.4468803"
     transform="matrix(1,0,-0.50025377,0.86587884,0,0)"
     id="ellipse5190-6"
     style="fill:#000000;fill-opacity:1;stroke:none;stroke-width:1.6036;stroke-miterlimit:4;stroke-dasharray:none;stroke-opacity:1" />
  <ellipse
     fill="#000000"
     cx="70.040314"
     cy="59.209469"
     rx="2.9866006"
     ry="3.4468803"
     transform="matrix(1,0,-0.50025377,0.86587884,0,0)"
     id="ellipse5192-2"
     style="fill:#000000;fill-opacity:1;stroke:none;stroke-width:1.6036;stroke-miterlimit:4;stroke-dasharray:none;stroke-opacity:1" />
  <ellipse
     transform="matrix(1,0,-0.50025377,0.86587884,0,0)"
     ry="3.4468803"
     rx="2.9866006"
     cy="73.833321"
     cx="77.223953"
     fill="#000000"
     id="ellipse5194-9"
     style="fill:#000000;fill-opacity:1;stroke:none;stroke-width:1.6036;stroke-miterlimit:4;stroke-dasharray:none;stroke-opacity:1" />
  <path
     id="path8308"
     style="fill:none;fill-opacity:1;stroke:#000000;stroke-width:1.6;stroke-linecap:square;stroke-linejoin:round;stroke-miterlimit:4;stroke-dasharray:none;stroke-opacity:1"
     d="m 61.975633,55.024137 -27.062178,21.11381 c -0.992356,0.789253 -3.717728,0.827199 -4.732898,-0.0029 L 2.4027808,54.727255 2.4207418,24.937276 29.530416,3.8251458 c 0.992356,-0.7892538 3.717728,-0.8271935 4.732898,0.00333 L 62.021284,25.25757 Z" />
</svg>
