<?xml version="1.0" encoding="UTF-8" standalone="no"?>
<svg
   xmlns:dc="http://purl.org/dc/elements/1.1/"
   xmlns:cc="http://creativecommons.org/ns#"
   xmlns:rdf="http://www.w3.org/1999/02/22-rdf-syntax-ns#"
   xmlns:svg="http://www.w3.org/2000/svg"
   xmlns="http://www.w3.org/2000/svg"
   version="1.0"
   width="100"
   height="100"
   viewBox="0 0 80 80"
   preserveAspectRatio="xMidYMid meet"
   id="svg2">
  <metadata
     id="metadata4245">
    <rdf:RDF>
      <cc:Work
         rdf:about="">
        <dc:format>image/svg+xml</dc:format>
        <dc:type
           rdf:resource="http://purl.org/dc/dcmitype/StillImage" />
        <dc:title></dc:title>
      </cc:Work>
    </rdf:RDF>
  </metadata>
  <defs
     id="defs4243" />
  <path
     id="die_background"
     d="M 32.768656,0.99874706 2.3967809,24.261246 l 0.07344,0.05625 v 31.039063 l 30.2984371,23.290629 30.3,-23.290629 V 24.317497 l 0.07344,-0.05625 z"
     style="fill:#ffffff" />
  <rect
     fill="#ffffff"
     stroke="#000000"
     stroke-width="0.988192"
     width="38.258038"
     height="38.258038"
     x="-18.439425"
     y="21.459667"
     transform="matrix(0.79387624,-0.60807937,0.79387624,0.60807937,0,0)"
     id="rect5209"
     style="mix-blend-mode:multiply;fill:#f2f2f2;fill-opacity:1;stroke:none" />
  <path
     fill="#ebebeb"
     stroke="#000000"
     stroke-width="1.05179"
     d="M 2.4710239,24.235892 32.769837,47.525732 V 78.646398 L 2.4710239,55.356559 Z"
     id="path5211"
     style="mix-blend-mode:multiply;fill:#e5e5e5;fill-opacity:1;stroke:none" />
  <path
     fill="#ebebeb"
     stroke="#000000"
     stroke-width="1.05179"
     d="M 63.068656,24.235892 32.769837,47.525732 V 78.646398 L 63.068656,55.356559 Z"
     id="path5213"
     style="mix-blend-mode:multiply;fill:#cccccc;fill-opacity:1;stroke:none" />
  <path
     id="path5174"
     style="fill:none;fill-opacity:1;stroke:#000000;stroke-width:1.5616;stroke-linecap:round;stroke-linejoin:round;stroke-miterlimit:4;stroke-dasharray:none;stroke-opacity:1"
     d="M 62.629636,24.960328 32.583733,48.385648 2.5378169,24.960328" />
  <path
     id="path5176"
     style="fill:none;fill-opacity:1;stroke:#000000;stroke-width:1.56169;stroke-linecap:round;stroke-linejoin:round;stroke-miterlimit:4;stroke-dasharray:none;stroke-opacity:1"
     d="M 32.721083,76.845258 V 48.385648" />
  <path
     id="path8308"
     style="fill:none;fill-opacity:1;stroke:#000000;stroke-width:3.1232;stroke-linecap:square;stroke-linejoin:round;stroke-miterlimit:4;stroke-dasharray:none;stroke-opacity:1"
     d="M 62.583053,55.334374 34.968586,76.879078 c -1.012608,0.80536 -3.7936,0.84408 -4.829488,-0.003 L 1.7944287,55.031433 1.8127563,24.633495 29.475689,3.0905051 c 1.012608,-0.805361 3.7936,-0.844075 4.829488,0.0034 L 62.629636,24.960328 Z" />
</svg>
